<svg width="160" height="131" xmlns="http://www.w3.org/2000/svg" version="1.1" xml:space="preserve">
 <g>
  <title>Layer 1</title>
  <g stroke="null" id="_x39_0-diners-club_x2C__Credit_card">
   <g stroke="null" id="svg_1">
    <path stroke="null" d="m146.18728,0.35932l-132.37456,0c-7.50373,0 -13.5918,6.08845 -13.5918,13.59218l0,102.82665c0,7.50448 6.08808,13.59255 13.5918,13.59255l132.37456,0c7.5041,0 13.5918,-6.08845 13.5918,-13.59255l0,-102.82665c0,-7.5041 -6.08808,-13.59218 -13.5918,-13.59218z" fill="#0068A9" id="svg_2"/>
    <path stroke="null" d="m92.16258,113.23204l-25.56992,0c-30.07223,0 -52.18886,-19.32304 -52.18886,-47.03625c0,-30.33439 22.11662,-48.69858 52.18886,-48.69858l25.56992,0c29.732,0 53.43325,18.36419 53.43325,48.69858c0,27.71358 -23.70125,47.03625 -53.43325,47.03625z" fill="#FFFFFF" id="svg_3"/>
    <path stroke="null" d="m66.6779,30.03662c-19.62142,0 -35.5979,15.91575 -35.5979,35.59753c0,19.62066 15.97649,35.59753 35.5979,35.59753c19.68214,0 35.59714,-15.97649 35.59714,-35.59753c0,-19.68176 -15.91538,-35.59753 -35.59714,-35.59753z" fill="#0068A9" id="svg_4"/>
    <path stroke="null" d="m58.59819,86.65271c-8.44372,-3.21944 -14.45748,-11.42062 -14.45748,-21.0182c0,-9.59796 6.01377,-17.79876 14.45748,-21.07893l0,42.09713z" fill="#FFFFFF" id="svg_5"/>
    <path stroke="null" d="m74.75724,86.71382l0,-42.15861c8.44409,3.28055 14.45786,11.48096 14.45786,21.07893c0,9.59759 -6.01414,17.79876 -14.45786,21.07969l0,0l0,-0.00001z" fill="#FFFFFF" id="svg_6"/>
   </g>
  </g>
  <g id="Layer_1"/>
 </g>

</svg>