<svg width="160" height="101" xmlns="http://www.w3.org/2000/svg" version="1.1">
 <title/>
 <desc/>

 <g>
  <title>Layer 1</title>
  <g stroke="null" id="round-rect" fill-rule="evenodd" fill="none">
   <g stroke="null" id="jcb_card_payment">
    <path stroke="null" id="Rectangle-1" fill="#F4F4F4" d="m147.3714,0.93909c-7.92605,0 -91.84231,0 -138.70584,0c-3.96302,0 -7.92605,3.96487 -7.92605,7.92975c0,23.83763 0,71.36771 0,79.29746c0,7.92975 3.96302,11.89462 11.88907,11.89462c44.21071,0 126.81676,0 134.74281,0c7.92605,0 11.88907,-3.96487 11.88907,-11.89462c0,-7.92975 0,-48.99399 0,-75.33258c0,-7.92975 -3.96302,-11.89462 -11.88907,-11.89462z"/>
    <g stroke="null" id="jcb-2">
     <path stroke="null" id="Shape" fill="#479951" d="m104.61533,52.29016l0.06148,0l0.11883,0l0.11883,0l0.11893,0l0.11883,0l0.11883,0l0.11893,0l0.11883,0l0.11893,0l0.11883,0l0.11883,0l0.11893,0l0.11883,0l0.11883,0l0.11893,0l0.11883,0l0.11883,0l0.11893,0l0.11883,0l0.11883,0l0.11893,0l0.11883,0l0.11883,0l0.11893,0l0.11883,0l0.11883,0l0.11893,0l0.11883,0l0.11883,0l0.11893,0l0.11883,0l0.11893,0l0.11883,0l0.11883,0l0.11893,0l0.11883,0l0.11883,0l0.11893,0l0.11883,0l0.11883,0l0.11893,0l0.11883,0l0.11883,0l0.11893,0l0.11883,0l0.11883,0l0.11893,0l0.11883,0l0.11883,0l0.11893,0l0.11883,0l0.11883,0l0.11893,0l0.11883,0l0.11883,0l0.11893,0l0.11883,0l0.11893,0l0.11883,0l0.11883,0l0.09893,0l0.02,0.00049c0.03665,0.00089 0.07666,0.00256 0.11883,0.00482c0.03813,0.00207 0.07804,0.00473 0.11883,0.00778c0.03912,0.00285 0.07902,0.0062 0.11893,0.00984c0.04,0.00364 0.07981,0.00768 0.11883,0.01201c0.04089,0.00453 0.0809,0.00935 0.11883,0.01447c0.04257,0.00571 0.08267,0.01162 0.11893,0.01782c0.02611,0.00443 0.05025,0.00896 0.07183,0.01359l0.047,0.01063c0.03981,0.00925 0.07942,0.01929 0.11883,0.03022c0.0399,0.01103 0.07951,0.02264 0.11893,0.03524c0.0399,0.0127 0.07951,0.02619 0.11883,0.04046c0.03991,0.01447 0.07951,0.02973 0.11883,0.04578c0.04,0.01634 0.07961,0.03357 0.11893,0.05149c0.04,0.01831 0.07961,0.03731 0.11883,0.05729c0.04,0.02028 0.07961,0.04155 0.11883,0.0636c0.0401,0.02254 0.07981,0.04617 0.11893,0.07049c0.0401,0.02501 0.07981,0.0507 0.11883,0.07748c0.0402,0.02757 0.07991,0.05592 0.11883,0.08525c0.0403,0.03042 0.08001,0.06182 0.11893,0.09421c0.0404,0.03367 0.08001,0.06842 0.11883,0.10406c0.0406,0.03731 0.0803,0.07541 0.11893,0.11479c0.04079,0.04145 0.0803,0.08427 0.11883,0.12808c0.04089,0.04657 0.0805,0.09441 0.11883,0.14353c0.04128,0.05287 0.0809,0.10711 0.11893,0.16283c0.04158,0.06103 0.08129,0.12365 0.11883,0.18793c0.04237,0.07245 0.08198,0.14708 0.11883,0.22367c0.04375,0.09077 0.08355,0.18429 0.11893,0.28047c0.04759,0.12926 0.0874,0.26324 0.11883,0.40156c0.05439,0.23971 0.08365,0.49222 0.08365,0.75586c0,0.26491 -0.02916,0.51851 -0.08365,0.75901c-0.03143,0.13871 -0.07124,0.27309 -0.11883,0.40254c-0.03547,0.09648 -0.07518,0.1901 -0.11893,0.28116c-0.03685,0.07659 -0.07646,0.15131 -0.11883,0.22386c-0.03754,0.06438 -0.07715,0.127 -0.11883,0.18803c-0.03803,0.05572 -0.07774,0.11006 -0.11893,0.16292c-0.03833,0.04912 -0.07794,0.09687 -0.11883,0.14344c-0.03853,0.04381 -0.07814,0.08653 -0.11883,0.12798c-0.03863,0.03938 -0.07843,0.07748 -0.11893,0.11469c-0.03882,0.03554 -0.07843,0.07 -0.11883,0.10356c-0.03892,0.03229 -0.07853,0.0637 -0.11893,0.09402c-0.03892,0.02924 -0.07863,0.05749 -0.11883,0.08496c-0.03902,0.02668 -0.07873,0.05237 -0.11883,0.07718c-0.03912,0.02422 -0.07882,0.04765 -0.11893,0.0701c-0.03912,0.02195 -0.07873,0.04302 -0.11883,0.0632c-0.03921,0.01979 -0.07882,0.03879 -0.11883,0.057c-0.03931,0.01782 -0.07892,0.03475 -0.11893,0.05099c-0.03932,0.01585 -0.07892,0.03111 -0.11883,0.04538c-0.03931,0.01408 -0.07892,0.02737 -0.11883,0.03987c-0.03941,0.0124 -0.07902,0.02392 -0.11893,0.03475c-0.03941,0.01063 -0.07902,0.02057 -0.11883,0.02973l-0.047,0.01053c-0.02158,0.00492 -0.04572,0.00975 -0.07183,0.01438c-0.03626,0.0064 -0.07636,0.0125 -0.11893,0.01831c-0.03793,0.00512 -0.07794,0.01004 -0.11883,0.01457c-0.03902,0.00433 -0.07882,0.00827 -0.11883,0.01181c-0.03991,0.00364 -0.07981,0.00689 -0.11893,0.00965c-0.04079,0.00295 -0.0807,0.00551 -0.11883,0.00748c-0.04217,0.00216 -0.08217,0.00374 -0.11883,0.00463l-0.06375,0.00079l-0.05518,0l-0.11883,0l-0.11883,0l-0.11893,0l-0.11883,0l-0.11893,0l-0.11883,0l-0.11883,0l-0.11893,0l-0.11883,0l-0.11883,0l-0.11893,0l-0.11883,0l-0.11883,0l-0.11893,0l-0.11883,0l-0.11883,0l-0.11893,0l-0.11883,0l-0.11883,0l-0.11893,0l-0.11883,0l-0.11883,0l-0.11893,0l-0.11883,0l-0.11883,0l-0.11893,0l-0.11883,0l-0.11883,0l-0.11893,0l-0.11883,0l-0.11893,0l-0.11883,0l-0.11883,0l-0.11893,0l-0.11883,0l-0.11883,0l-0.11893,0l-0.11883,0l-0.11883,0l-0.11893,0l-0.11883,0l-0.11883,0l-0.11893,0l-0.11883,0l-0.11883,0l-0.11893,0l-0.11883,0l-0.11883,0l-0.11893,0l-0.11883,0l-0.11883,0l-0.11893,0l-0.11883,0l-0.11893,0l-0.11883,0l-0.11883,0l-0.11893,0l-0.11883,0l-0.11883,0l-0.06148,0l0,-6.49224l0,0l0,0l0,0zm9.57095,-7.34783c0.04779,0.21796 0.07341,0.44871 0.07341,0.69177c0,0.24267 -0.02562,0.47332 -0.07341,0.69108c-0.03074,0.13989 -0.07065,0.27437 -0.11893,0.40333c-0.03527,0.09411 -0.07498,0.18518 -0.11883,0.27309c-0.03675,0.07374 -0.07646,0.1453 -0.11883,0.21451c-0.03754,0.06123 -0.07735,0.12069 -0.11893,0.17838c-0.03803,0.05257 -0.07764,0.10356 -0.11883,0.15308c-0.03833,0.04607 -0.07784,0.09077 -0.11883,0.13418c-0.03853,0.04076 -0.07814,0.08023 -0.11883,0.11853c-0.03872,0.03642 -0.07833,0.07177 -0.11893,0.10593c-0.03882,0.03269 -0.07843,0.06429 -0.11883,0.0949c-0.03892,0.02953 -0.07853,0.05799 -0.11883,0.08555c-0.03902,0.02658 -0.07873,0.05218 -0.11893,0.07689c-0.03912,0.02402 -0.07873,0.04716 -0.11883,0.06931c-0.03912,0.02166 -0.07873,0.04253 -0.11883,0.06241c-0.03922,0.01949 -0.07892,0.0381 -0.11893,0.05592c-0.03922,0.01742 -0.07882,0.03396 -0.11883,0.04972c-0.03931,0.01546 -0.07892,0.03012 -0.11883,0.044c-0.03931,0.01369 -0.07892,0.02658 -0.11883,0.03859c-0.03941,0.01191 -0.07902,0.02313 -0.11893,0.03347c-0.03931,0.01024 -0.07892,0.01969 -0.11883,0.02835c-0.03932,0.00867 -0.07902,0.01634 -0.11883,0.02343l-0.02887,0.00522c-0.02316,0.00404 -0.0539,0.00856 -0.09006,0.01309c-0.03508,0.00443 -0.07538,0.00906 -0.11883,0.01339c-0.03764,0.00384 -0.07764,0.00758 -0.11883,0.01103c-0.03892,0.00325 -0.07892,0.0061 -0.11893,0.00866c-0.03991,0.00256 -0.07991,0.00473 -0.11883,0.0063c-0.04119,0.00167 -0.08119,0.00276 -0.11883,0.00295l-0.01882,0.0001l-0.10001,0l-0.11893,0l-0.11883,0l-0.11883,0l-0.11893,0l-0.11883,0l-0.11883,0l-0.11883,0l-0.11893,0l-0.11883,0l-0.11883,0l-0.11893,0l-0.11883,0l-0.11883,0l-0.11893,0l-0.11883,0l-0.11883,0l-0.11883,0l-0.11893,0l-0.11883,0l-0.11883,0l-0.11893,0l-0.11883,0l-0.11883,0l-0.11893,0l-0.11883,0l-0.11883,0l-0.11883,0l-0.11893,0l-0.11883,0l-0.11883,0l-0.11893,0l-0.11883,0l-0.11883,0l-0.11883,0l-0.11893,0l-0.11883,0l-0.11883,0l-0.11893,0l-0.11883,0l-0.11883,0l-0.11893,0l-0.11883,0l-0.11883,0l-0.11883,0l-0.11893,0l-0.11883,0l-0.11883,0l-0.11893,0l-0.11883,0l-0.11883,0l-0.11893,0l-0.11883,0l-0.11883,0l-0.06227,0l0,-5.99106l0.06227,0l0.11883,0l0.11883,0l0.11893,0l0.11883,0l0.11883,0l0.11893,0l0.11883,0l0.11883,0l0.11893,0l0.11883,0l0.11883,0l0.11883,0l0.11893,0l0.11883,0l0.11883,0l0.11893,0l0.11883,0l0.11883,0l0.11893,0l0.11883,0l0.11883,0l0.11883,0l0.11893,0l0.11883,0l0.11883,0l0.11893,0l0.11883,0l0.11883,0l0.11883,0l0.11893,0l0.11883,0l0.11883,0l0.11893,0l0.11883,0l0.11883,0l0.11893,0l0.11883,0l0.11883,0l0.11883,0l0.11893,0l0.11883,0l0.11883,0l0.11893,0l0.11883,0l0.11883,0l0.11893,0l0.11883,0l0.11883,0l0.11883,0l0.11893,0l0.11883,0l0.11883,0l0.11893,0l0.11883,0l0.05005,0l0.06877,0.00227c0.03892,0.00157 0.07892,0.00394 0.11883,0.0065c0.04,0.00256 0.08001,0.00551 0.11893,0.00866c0.04119,0.00335 0.08119,0.00709 0.11883,0.01073c0.04345,0.00423 0.08375,0.00847 0.11883,0.0125c0.03616,0.00413 0.0669,0.00807 0.09006,0.01132l0.02887,0.00522c0.03981,0.00719 0.07951,0.01516 0.11883,0.02392c0.0399,0.00876 0.07951,0.01831 0.11883,0.02865c0.0399,0.01054 0.07951,0.02166 0.11893,0.03367c0.0399,0.01221 0.07951,0.0252 0.11883,0.03888c0.0399,0.01398 0.07951,0.02875 0.11883,0.0443c0.04001,0.01585 0.07961,0.03259 0.11883,0.05001c0.04,0.01792 0.07971,0.03652 0.11893,0.05602c0.0401,0.01998 0.07971,0.04076 0.11883,0.06241c0.0401,0.02225 0.07971,0.04548 0.11883,0.0695c0.0402,0.02471 0.07991,0.0503 0.11893,0.07698c0.0403,0.02747 0.07991,0.05621 0.11883,0.08575c0.0404,0.03062 0.08001,0.06222 0.11883,0.0949c0.04059,0.03426 0.0802,0.0696 0.11893,0.10602c0.04069,0.0383 0.0803,0.07777 0.11883,0.11853c0.04099,0.04332 0.0805,0.08811 0.11883,0.13418c0.04119,0.04952 0.0808,0.10061 0.11883,0.15318c0.04158,0.05769 0.08139,0.11705 0.11893,0.17838c0.04237,0.0692 0.08208,0.14078 0.11883,0.21451c0.04385,0.08791 0.08356,0.17917 0.11883,0.27328c0.04828,0.12896 0.08818,0.26354 0.11893,0.40362c0,0 -0.03074,-0.14009 0,0l0,0l0,0zm14.74059,-31.06595l0.04877,0l-0.0001,61.52991c0,0.36759 -0.01705,0.73125 -0.04868,1.09067c-0.02778,0.31631 -0.06759,0.62916 -0.11893,0.93818c-0.03448,0.20762 -0.0741,0.41337 -0.11883,0.61735c-0.03636,0.16588 -0.07597,0.33067 -0.11893,0.49399c-0.03715,0.14097 -0.07686,0.28086 -0.11883,0.41977c-0.03793,0.12561 -0.07715,0.25064 -0.11893,0.37458c-0.03793,0.11233 -0.07784,0.22377 -0.11883,0.33471c-0.03823,0.10327 -0.07804,0.20585 -0.11893,0.30784c-0.03843,0.09579 -0.07804,0.19088 -0.11883,0.28549c-0.03863,0.08958 -0.07833,0.17868 -0.11893,0.26718c-0.03873,0.08427 -0.07833,0.16814 -0.11883,0.25133c-0.03892,0.07974 -0.07843,0.15918 -0.11893,0.23794c-0.03882,0.07551 -0.07853,0.15072 -0.11883,0.22524c-0.03882,0.07177 -0.07873,0.14274 -0.11893,0.21363c-0.03892,0.06862 -0.07863,0.13674 -0.11883,0.20447c-0.03912,0.06596 -0.07873,0.13152 -0.11893,0.19669c-0.03921,0.0634 -0.07863,0.1267 -0.11893,0.18941c-0.03902,0.06064 -0.07892,0.12079 -0.11893,0.18065c-0.03902,0.05838 -0.07882,0.11606 -0.11883,0.17375c-0.03922,0.05661 -0.07882,0.11302 -0.11893,0.16893c-0.03922,0.05454 -0.07873,0.10888 -0.11883,0.16283c-0.03912,0.05257 -0.07902,0.10445 -0.11893,0.15633c-0.03931,0.05109 -0.07882,0.10208 -0.11883,0.15249c-0.03931,0.04952 -0.07882,0.09864 -0.11893,0.14747c-0.03921,0.04774 -0.07902,0.0951 -0.11883,0.14225c-0.03951,0.04666 -0.07873,0.09352 -0.11893,0.13959c-0.03922,0.04499 -0.07902,0.08939 -0.11883,0.13379c-0.03931,0.04391 -0.07902,0.08752 -0.11893,0.13083c-0.03941,0.04273 -0.07882,0.08535 -0.11883,0.12749c-0.03921,0.04135 -0.07912,0.082 -0.11893,0.12286c-0.03951,0.04056 -0.07882,0.08131 -0.11893,0.12129c-0.03922,0.03908 -0.07912,0.07737 -0.11883,0.11596c-0.03951,0.0383 -0.07892,0.07669 -0.11893,0.11449c-0.03931,0.03711 -0.07902,0.07383 -0.11883,0.11046c-0.03941,0.03633 -0.07912,0.07245 -0.11893,0.10819c-0.03941,0.03534 -0.07892,0.07049 -0.11883,0.10534c-0.03941,0.03446 -0.07912,0.06852 -0.11893,0.10248c-0.03951,0.03367 -0.07892,0.06724 -0.11883,0.10041c-0.03931,0.03269 -0.07912,0.06487 -0.11893,0.09707c-0.03951,0.03199 -0.07892,0.06399 -0.11883,0.09559c-0.03931,0.03111 -0.07922,0.06153 -0.11893,0.09215c-0.03951,0.03042 -0.07892,0.06094 -0.11883,0.09096c-0.03932,0.02953 -0.07922,0.05848 -0.11893,0.08762c-0.03961,0.02894 -0.07902,0.05818 -0.11893,0.08673c-0.03931,0.02815 -0.07912,0.05552 -0.11883,0.08319c-0.03961,0.02756 -0.07902,0.05532 -0.11893,0.0824c-0.03941,0.02678 -0.07912,0.05286 -0.11883,0.07925c-0.03951,0.02619 -0.07902,0.05247 -0.11893,0.07826c-0.03942,0.0255 -0.07912,0.0505 -0.11883,0.07551c-0.03951,0.0249 -0.07912,0.04981 -0.11893,0.07423c-0.03941,0.02422 -0.07902,0.04814 -0.11883,0.07196l-0.11893,0.07029c-0.03951,0.02304 -0.07902,0.04607 -0.11883,0.06871c-0.03941,0.02245 -0.07922,0.0444 -0.11893,0.06645c-0.03961,0.02195 -0.07902,0.0441 -0.11883,0.06556c-0.03941,0.02126 -0.07922,0.04184 -0.11893,0.06271c-0.03971,0.02087 -0.07902,0.04223 -0.11893,0.06271c-0.03931,0.02018 -0.07922,0.03938 -0.11883,0.05916c-0.03961,0.01979 -0.07902,0.03967 -0.11893,0.05897c-0.03942,0.0191 -0.07922,0.0378 -0.11883,0.05651l-0.11893,0.05553l-0.11883,0.05385c-0.03951,0.01762 -0.07922,0.03475 -0.11893,0.05198c-0.03961,0.01713 -0.07902,0.03475 -0.11883,0.05149c-0.03941,0.01664 -0.07922,0.03229 -0.11893,0.04853c-0.03961,0.01615 -0.07902,0.03278 -0.11883,0.04853c-0.03951,0.01565 -0.07922,0.03052 -0.11893,0.04578c-0.03951,0.01516 -0.07902,0.03032 -0.11883,0.04509l-0.11893,0.04381c-0.03951,0.01427 -0.07932,0.02805 -0.11893,0.04184c-0.03961,0.01388 -0.07892,0.02825 -0.11883,0.04174c-0.03941,0.01329 -0.07932,0.0257 -0.11893,0.03859l-0.11883,0.03849c-0.03951,0.0125 -0.07922,0.02451 -0.11893,0.03662l-0.11883,0.03534c-0.03961,0.01162 -0.07912,0.02353 -0.11893,0.03475c-0.03941,0.01112 -0.07922,0.02146 -0.11883,0.03219c-0.03961,0.01073 -0.07912,0.02176 -0.11893,0.03209l-0.11883,0.02993l-0.11893,0.02904l-0.11883,0.02825c-0.03951,0.00906 -0.07922,0.01723 -0.11893,0.02589c-0.03961,0.00866 -0.07912,0.01762 -0.11893,0.02589l-0.11883,0.02373l-0.11893,0.02274c-0.03961,0.00738 -0.07912,0.01536 -0.11883,0.02235c-0.03951,0.00699 -0.07932,0.01309 -0.11893,0.01969l-0.11883,0.01969l-0.11893,0.01782l-0.11883,0.01664c-0.03971,0.00541 -0.07912,0.01152 -0.11893,0.01664c-0.03951,0.00502 -0.07932,0.00896 -0.11883,0.01358c-0.03961,0.00463 -0.07922,0.00935 -0.11893,0.01359c-0.03961,0.00423 -0.07912,0.00856 -0.11883,0.0124c-0.03951,0.00384 -0.07932,0.00709 -0.11893,0.01053c-0.03971,0.00345 -0.07922,0.00738 -0.11893,0.01054c-0.03951,0.00305 -0.07922,0.00551 -0.11883,0.00827l-0.11893,0.00748c-0.03961,0.00236 -0.07912,0.00522 -0.11883,0.00719c-0.03951,0.00197 -0.07932,0.00296 -0.11893,0.00453l-0.11883,0.00453l-0.11893,0.00305c-0.03951,0.00089 -0.07922,0.00098 -0.11883,0.00158l-0.11893,0.00148l-0.02453,0.00029l-0.09429,0l-0.11893,0l-0.11883,0l-0.11893,0l-0.11893,0l-0.11883,0l-0.11893,0l-0.11883,0l-0.11893,0l-0.11883,0l-0.11893,0l-0.11883,0l-0.11893,0l-0.11883,0l-0.11893,0l-0.11893,0l-0.11883,0l-0.11893,0l-0.11883,0l-0.11893,0l-0.11883,0l-0.11893,0l-0.11883,0l-0.11893,0l-0.11883,0l-0.11893,0l-0.11883,0l-0.11893,0l-0.11893,0l-0.11883,0l-0.11893,0l-0.11883,0l-0.11893,0l-0.11883,0l-0.11893,0l-0.11883,0l-0.11893,0l-0.11883,0l-0.11893,0l-0.11883,0l-0.11893,0l-0.11893,0l-0.11883,0l-0.11893,0l-0.11883,0l-0.11893,0l-0.11883,0l-0.11893,0l-0.11883,0l-0.11893,0l-0.11883,0l-0.11893,0l-0.11883,0l-0.11893,0l-0.11893,0l-0.11883,0l-0.11893,0l-0.11883,0l-0.11893,0l-0.11883,0l-0.11893,0l-0.11883,0l-0.11893,0l-0.11883,0l-0.11893,0l-0.11883,0l-0.11893,0l-0.11893,0l-0.11883,0l-0.11893,0l-0.11883,0l-0.11893,0l-0.11883,0l-0.11893,0l-0.11883,0l-0.11893,0l-0.11883,0l-0.11893,0l-0.11883,0l-0.11893,0l-0.11893,0l-0.11883,0l-0.11893,0l-0.11883,0l-0.11893,0l-0.11883,0l-0.11893,0l-0.11883,0l-0.11893,0l-0.11883,0l-0.11893,0l-0.11883,0l-0.11893,0l-0.11893,0l-0.11883,0l-0.11893,0l-0.11883,0l-0.11893,0l-0.11883,0l-0.11893,0l-0.11883,0l-0.11893,0l-0.11883,0l-0.11893,0l-0.11883,0l-0.11893,0l-0.11893,0l-0.11883,0l-0.11893,0l-0.11883,0l-0.11893,0l-0.11883,0l-0.11893,0l-0.11883,0l-0.11893,0l-0.11883,0l-0.11893,0l-0.11883,0l-0.11893,0l-0.11893,0l-0.11883,0l-0.11893,0l-0.11883,0l-0.11893,0l-0.11883,0l-0.11893,0l-0.11883,0l-0.11893,0l-0.11883,0l-0.11893,0l-0.11883,0l-0.11893,0l-0.11893,0l-0.11883,0l-0.11893,0l-0.11883,0l-0.11893,0l-0.11883,0l-0.11893,0l-0.11883,0l-0.11893,0l-0.11883,0l-0.11893,0l-0.11883,0l-0.11893,0l-0.11893,0l-0.11883,0l-0.11893,0l-0.11883,0l-0.11893,0l-0.25648,0l0,-25.08788l0.25648,0l0.11893,0l0.11883,0l0.11893,0l0.11883,0l0.11893,0l0.11893,0l0.11883,0l0.11893,0l0.11883,0l0.11893,0l0.11883,0l0.11893,0l0.11883,0l0.11893,0l0.11883,0l0.11893,0l0.11883,0l0.11893,0l0.11893,0l0.11883,0l0.11893,0l0.11883,0l0.11893,0l0.11883,0l0.11893,0l0.11883,0l0.11893,0l0.11883,0l0.11893,0l0.11883,0l0.11893,0l0.11893,0l0.11883,0l0.11893,0l0.11883,0l0.11893,0l0.11883,0l0.11893,0l0.11883,0l0.11893,0l0.11883,0l0.11893,0l0.11883,0l0.11893,0l0.11893,0l0.11883,0l0.11893,0l0.11883,0l0.11893,0l0.11883,0l0.11893,0l0.11883,0l0.11893,0l0.11883,0l0.11893,0l0.11883,0l0.11893,0l0.11893,0l0.11883,0l0.11893,0l0.11883,0l0.11893,0l0.11883,0l0.11893,0l0.11883,0l0.11893,0l0.11883,0l0.11893,0l0.11883,0l0.11893,0l0.11893,0l0.11883,0l0.11893,0l0.11883,0l0.11893,0l0.11883,0l0.11893,0l0.11883,0l0.11893,0l0.11883,0l0.11893,0l0.11883,0l0.11893,0l0.11893,0l0.11883,0l0.11893,0l0.11883,0l0.11893,0l0.11883,0l0.11893,0l0.11883,0l0.11893,0l0.11883,0l0.11893,0l0.11883,0l0.11893,0l0.11893,0l0.11883,0l0.11893,0l0.11883,0l0.11893,0l0.11883,0l0.11893,0l0.11883,0l0.11893,0l0.11883,0l0.11893,0l0.11883,0l0.11893,0l0.11893,0l0.11883,0l0.11893,0l0.11883,0l0.11893,0l0.11883,0l0.11893,0l0.11883,0l0.11893,0l0.11883,0l0.11893,0l0.11883,0l0.11893,0l0.11893,0l0.11883,0l0.11893,0l0.11883,0l0.11893,0l0.11883,0l0.11893,0l0.11883,0l0.11893,0l0.11883,0l0.11893,0l0.11883,0l0.11893,0l0.11893,0l0.11883,0l0.11893,0l0.11883,0l0.11893,0l0.11883,0l0.11893,0l0.11883,0l0.11893,0l0.11883,0l0.11893,0l0.11893,0l0.11883,0l0.11893,0l0.11883,0l0.11893,0l0.11883,0l0.11893,0l0.11883,0l0.11893,0l0.11883,0l0.11893,0l0.11883,0l0.06306,0l0.05587,-0.00049l0.11893,-0.00098l0.11883,-0.00246c0.03971,-0.00098 0.07942,-0.00158 0.11893,-0.00295c0.03981,-0.00138 0.07922,-0.00325 0.11883,-0.00502l0.11893,-0.00551l0.11883,-0.00719l0.11893,-0.00817l0.11883,-0.00925l0.11893,-0.01093c0.03961,-0.00374 0.07942,-0.00738 0.11883,-0.01152c0.03981,-0.00413 0.07932,-0.00886 0.11893,-0.01349l0.11883,-0.01447c0.03981,-0.00512 0.07942,-0.01004 0.11893,-0.01555c0.03981,-0.00551 0.07932,-0.01161 0.11893,-0.01752c0.03971,-0.006 0.07942,-0.01191 0.11883,-0.01831l0.11893,-0.01999l0.11883,-0.02136c0.03971,-0.00738 0.07951,-0.01457 0.11893,-0.02235c0.03981,-0.00787 0.07932,-0.01634 0.11883,-0.02461l0.11893,-0.02569c0.03971,-0.00886 0.07942,-0.01772 0.11883,-0.02697c0.0399,-0.00935 0.07942,-0.01929 0.11893,-0.02914c0.03971,-0.00984 0.07942,-0.01989 0.11883,-0.03022c0.03971,-0.01043 0.07951,-0.02097 0.11893,-0.0319c0.03981,-0.01093 0.07932,-0.02234 0.11883,-0.03386c0.03981,-0.01152 0.07951,-0.02323 0.11893,-0.03524l0.11893,-0.03721c0.0399,-0.0127 0.07932,-0.02589 0.11883,-0.03918c0.03981,-0.01339 0.07951,-0.02677 0.11893,-0.04066c0.03981,-0.01398 0.07951,-0.02796 0.11883,-0.04243c0.04,-0.01467 0.07942,-0.03003 0.11893,-0.04519c0.03981,-0.01536 0.07942,-0.03091 0.11883,-0.04676c0.03981,-0.01605 0.07961,-0.03199 0.11893,-0.04853c0.0399,-0.01673 0.07942,-0.03386 0.11883,-0.05119c0.0399,-0.01752 0.07951,-0.03544 0.11893,-0.05355c0.03981,-0.01831 0.07951,-0.03672 0.11883,-0.05553c0.03981,-0.019 0.07961,-0.0382 0.11893,-0.05779c0.04,-0.01998 0.07942,-0.04026 0.11883,-0.06084c0.0399,-0.02077 0.07951,-0.04213 0.11893,-0.06359c0.04,-0.02176 0.07961,-0.04371 0.11893,-0.06606c0.0399,-0.02264 0.07961,-0.04558 0.11883,-0.06891c0.03991,-0.02363 0.07971,-0.04745 0.11893,-0.07177c0.04001,-0.02491 0.07951,-0.05011 0.11883,-0.07561c0.0401,-0.02599 0.07961,-0.05237 0.11893,-0.07905c0.04,-0.02707 0.07961,-0.05464 0.11883,-0.0825c0.0401,-0.02845 0.07971,-0.0572 0.11893,-0.08634c0.0401,-0.02973 0.07971,-0.05985 0.11883,-0.09037c0.0401,-0.03131 0.07981,-0.06281 0.11893,-0.0948c0.0401,-0.03278 0.07971,-0.06596 0.11883,-0.09953c0.0402,-0.03446 0.07981,-0.0695 0.11893,-0.10485c0.0402,-0.03632 0.07981,-0.07324 0.11883,-0.11046c0.0403,-0.03839 0.07991,-0.07728 0.11893,-0.11665c0.0404,-0.04076 0.07991,-0.08191 0.11893,-0.12365c0.0403,-0.04312 0.07991,-0.08693 0.11883,-0.13113c0.0404,-0.04597 0.08011,-0.09254 0.11893,-0.13969c0.0405,-0.04912 0.08011,-0.09884 0.11883,-0.14915c0.0405,-0.05276 0.0804,-0.10583 0.11893,-0.15987c0.04089,-0.05739 0.0802,-0.11577 0.11883,-0.17464c0.04089,-0.06241 0.0806,-0.12561 0.11893,-0.1896c0.04119,-0.06881 0.08079,-0.13861 0.11883,-0.20929c0.04138,-0.07689 0.08129,-0.15466 0.11893,-0.23371c0.04207,-0.08831 0.08159,-0.17809 0.11883,-0.26905c0.04276,-0.10435 0.08257,-0.21008 0.11893,-0.31778c0.04474,-0.13271 0.08415,-0.26807 0.11883,-0.40579c0.05074,-0.20132 0.09055,-0.40795 0.11893,-0.61961c0.03448,-0.25684 0.05262,-0.52077 0.05262,-0.79199c0,-0.26413 -0.01793,-0.52068 -0.05262,-0.76984c-0.02848,-0.20467 -0.06828,-0.40421 -0.11893,-0.59845c-0.03458,-0.13241 -0.07429,-0.26226 -0.11883,-0.38964c-0.03646,-0.10445 -0.07606,-0.20742 -0.11893,-0.30843c-0.03714,-0.08752 -0.07685,-0.17376 -0.11883,-0.25862c-0.03774,-0.07639 -0.07744,-0.1517 -0.11893,-0.22593c-0.03813,-0.06832 -0.07764,-0.13586 -0.11883,-0.20231c-0.03823,-0.06172 -0.07804,-0.12256 -0.11893,-0.18262c-0.03853,-0.0567 -0.07804,-0.11301 -0.11883,-0.16824c-0.03852,-0.05218 -0.07833,-0.10347 -0.11893,-0.15426c-0.03872,-0.04863 -0.07833,-0.09658 -0.11883,-0.14402c-0.03892,-0.04548 -0.07843,-0.09057 -0.11893,-0.13497c-0.03892,-0.04272 -0.07843,-0.08496 -0.11883,-0.1266c-0.03892,-0.04017 -0.07863,-0.07974 -0.11893,-0.11892c-0.03902,-0.038 -0.07873,-0.07551 -0.11893,-0.11252c-0.03902,-0.03593 -0.07873,-0.07137 -0.11883,-0.10642c-0.03912,-0.03416 -0.07873,-0.06793 -0.11893,-0.1012c-0.03912,-0.03249 -0.07873,-0.06458 -0.11883,-0.09628c-0.03922,-0.03091 -0.07883,-0.06153 -0.11893,-0.09165c-0.03922,-0.02953 -0.07883,-0.05857 -0.11883,-0.08742c-0.03921,-0.02815 -0.07892,-0.05601 -0.11893,-0.08348c-0.03921,-0.02688 -0.07882,-0.05355 -0.11883,-0.07984c-0.03931,-0.02579 -0.07892,-0.05129 -0.11893,-0.07639c-0.03932,-0.02461 -0.07882,-0.04903 -0.11883,-0.07305c-0.03921,-0.02353 -0.07892,-0.04676 -0.11893,-0.0697c-0.03931,-0.02254 -0.07892,-0.04479 -0.11883,-0.06675c-0.03931,-0.02166 -0.07892,-0.04292 -0.11893,-0.06389c-0.03931,-0.02077 -0.07902,-0.04125 -0.11893,-0.06153c-0.03931,-0.01989 -0.07892,-0.03967 -0.11883,-0.05907c-0.03941,-0.0191 -0.07892,-0.0381 -0.11893,-0.0567c-0.03932,-0.01831 -0.07902,-0.03613 -0.11883,-0.05385c-0.03931,-0.01752 -0.07902,-0.03475 -0.11893,-0.05178c-0.03941,-0.01683 -0.07902,-0.03337 -0.11883,-0.04971c-0.03951,-0.01615 -0.07892,-0.03229 -0.11893,-0.04794c-0.03941,-0.01546 -0.07902,-0.03072 -0.11883,-0.04568c-0.03941,-0.01477 -0.07912,-0.02904 -0.11893,-0.04341c-0.03941,-0.01418 -0.07902,-0.02796 -0.11883,-0.04174c-0.03951,-0.01359 -0.07902,-0.02707 -0.11893,-0.04026c-0.03941,-0.013 -0.07902,-0.02569 -0.11883,-0.0382c-0.03941,-0.0124 -0.07922,-0.02442 -0.11893,-0.03633l-0.11893,-0.03485c-0.03951,-0.01132 -0.07902,-0.02264 -0.11883,-0.03347c-0.03941,-0.01073 -0.07922,-0.02107 -0.11893,-0.03131c-0.03941,-0.01024 -0.07902,-0.02008 -0.11883,-0.02992c-0.03951,-0.00975 -0.07912,-0.0194 -0.11893,-0.02865c-0.03941,-0.00925 -0.07912,-0.01821 -0.11883,-0.02697c-0.03941,-0.00876 -0.07912,-0.01713 -0.11893,-0.0254c-0.03951,-0.00827 -0.07902,-0.01654 -0.11883,-0.02432l-0.11893,-0.02274l-0.11883,-0.02117c-0.03951,-0.00689 -0.07912,-0.01378 -0.11893,-0.02018l-0.11883,-0.01871c-0.03951,-0.006 -0.07922,-0.01161 -0.11893,-0.01713l-0.11893,-0.01625l-0.11883,-0.01496l-0.11893,-0.01339l-0.11883,-0.0125l-0.11893,-0.01102l-0.11883,-0.00994l-0.10976,-0.00846l-0.0001,-0.14235l0.10986,-0.01703l0.11883,-0.01959c0.03981,-0.00679 0.07951,-0.01359 0.11893,-0.02077l0.11883,-0.02284c0.0399,-0.00787 0.07951,-0.01604 0.11893,-0.02441l0.11883,-0.02589c0.03981,-0.00896 0.07961,-0.01802 0.11893,-0.02747c0.0399,-0.00965 0.07942,-0.01969 0.11893,-0.02973c0.03991,-0.01014 0.07942,-0.02077 0.11883,-0.0314c0.03981,-0.01083 0.07952,-0.02186 0.11893,-0.03318c0.03981,-0.01142 0.07951,-0.02294 0.11883,-0.03485c0.03981,-0.01201 0.07961,-0.02442 0.11893,-0.03701c0.0399,-0.0128 0.07942,-0.02599 0.11883,-0.03928c0.04,-0.01349 0.07951,-0.02737 0.11893,-0.04135c0.03991,-0.01417 0.07951,-0.02855 0.11883,-0.04332c0.0399,-0.01496 0.07961,-0.03012 0.11893,-0.04558c0.0399,-0.01565 0.07951,-0.0317 0.11883,-0.04794c0.04,-0.01654 0.07961,-0.03328 0.11893,-0.05041c0.04,-0.01742 0.07951,-0.03514 0.11883,-0.05316c0.04001,-0.01821 0.07961,-0.03692 0.11893,-0.05582c0.04,-0.0192 0.07961,-0.03879 0.11893,-0.05858c0.0399,-0.02018 0.07961,-0.04066 0.11883,-0.06143c0.04,-0.02117 0.07971,-0.04273 0.11893,-0.06448c0.04,-0.02225 0.07961,-0.04479 0.11883,-0.06763c0.04,-0.02333 0.07971,-0.04706 0.11893,-0.07108c0.0401,-0.02451 0.07961,-0.04932 0.11883,-0.07452c0.0401,-0.02569 0.07971,-0.05198 0.11893,-0.07846c0.0401,-0.02707 0.07971,-0.05454 0.11883,-0.0824c0.0402,-0.02855 0.07981,-0.05739 0.11893,-0.08663c0.0402,-0.03003 0.07981,-0.06035 0.11883,-0.09116c0.0402,-0.0317 0.07991,-0.06359 0.11893,-0.09608c0.0402,-0.03347 0.07981,-0.06743 0.11883,-0.10169c0.0404,-0.03554 0.07991,-0.07147 0.11893,-0.1078c0.0403,-0.03751 0.08001,-0.07551 0.11893,-0.1139c0.0403,-0.03977 0.08001,-0.07994 0.11883,-0.12059c0.0405,-0.04253 0.08011,-0.08545 0.11893,-0.12896c0.0405,-0.04528 0.08011,-0.09126 0.11883,-0.13763c0.04059,-0.04853 0.0803,-0.09775 0.11893,-0.14747c0.04069,-0.05247 0.0803,-0.10563 0.11883,-0.15938c0.04089,-0.057 0.0805,-0.11469 0.11893,-0.17297c0.04099,-0.06222 0.0807,-0.12502 0.11883,-0.18872c0.04128,-0.06901 0.08099,-0.1388 0.11893,-0.20939c0.04168,-0.07768 0.08129,-0.15623 0.11883,-0.23568c0.04227,-0.08939 0.08188,-0.18006 0.11893,-0.27161c0.04316,-0.10671 0.08277,-0.2149 0.11883,-0.32448c0.04533,-0.13772 0.08503,-0.27771 0.11893,-0.41947c0.05488,-0.22997 0.09449,-0.46476 0.11893,-0.70359c0.01931,-0.18842 0.02936,-0.37941 0.02936,-0.57226c0,-0.20368 -0.01015,-0.40224 -0.02936,-0.59589c-0.02453,-0.24749 -0.06444,-0.48651 -0.11893,-0.71727c-0.03399,-0.14413 -0.0737,-0.285 -0.11893,-0.42243c-0.03616,-0.10996 -0.07577,-0.21776 -0.11883,-0.32349c-0.03715,-0.09106 -0.07676,-0.18055 -0.11893,-0.26836c-0.03764,-0.07836 -0.07735,-0.15544 -0.11883,-0.23125c-0.03804,-0.0694 -0.07774,-0.13772 -0.11893,-0.20506c-0.03833,-0.06251 -0.07784,-0.12414 -0.11883,-0.18478c-0.03843,-0.0568 -0.07813,-0.11272 -0.11893,-0.16785c-0.03852,-0.05218 -0.07813,-0.10366 -0.11883,-0.15436c-0.03882,-0.04843 -0.07823,-0.09638 -0.11893,-0.14353c-0.03872,-0.04479 -0.07843,-0.0888 -0.11883,-0.13241c-0.03882,-0.04194 -0.07853,-0.08329 -0.11893,-0.12414c-0.03892,-0.03938 -0.07853,-0.07817 -0.11883,-0.11646c-0.03902,-0.03711 -0.07863,-0.07383 -0.11893,-0.10986c-0.03902,-0.03495 -0.07873,-0.0695 -0.11893,-0.10356c-0.03912,-0.03308 -0.07863,-0.06576 -0.11883,-0.09795c-0.03912,-0.03131 -0.07873,-0.06232 -0.11893,-0.09273c-0.03912,-0.02973 -0.07873,-0.05897 -0.11883,-0.08781c-0.03921,-0.02825 -0.07882,-0.05601 -0.11893,-0.08348c-0.03921,-0.02678 -0.07873,-0.05316 -0.11883,-0.07925c-0.03922,-0.0256 -0.07892,-0.0508 -0.11893,-0.07561c-0.03922,-0.02432 -0.07892,-0.04824 -0.11883,-0.07186c-0.03931,-0.02323 -0.07892,-0.04607 -0.11893,-0.06862c-0.03921,-0.02215 -0.07882,-0.04401 -0.11883,-0.06547c-0.03931,-0.02117 -0.07892,-0.04184 -0.11893,-0.06241c-0.03931,-0.02018 -0.07892,-0.04007 -0.11883,-0.05966c-0.03941,-0.0193 -0.07892,-0.03849 -0.11893,-0.0571c-0.03932,-0.01841 -0.07902,-0.03662 -0.11893,-0.05434c-0.03931,-0.01752 -0.07892,-0.03446 -0.11883,-0.05149c-0.03931,-0.01674 -0.07912,-0.03318 -0.11893,-0.04942c-0.03931,-0.01595 -0.07902,-0.0317 -0.11883,-0.04716c-0.03941,-0.01526 -0.07902,-0.03042 -0.11893,-0.04519c-0.03941,-0.01457 -0.07892,-0.02884 -0.11883,-0.04292c-0.03941,-0.01388 -0.07902,-0.02737 -0.11893,-0.04076c-0.03941,-0.01319 -0.07902,-0.02609 -0.11883,-0.03879c-0.03941,-0.0126 -0.07902,-0.025 -0.11893,-0.03711c-0.03951,-0.01201 -0.07892,-0.02402 -0.11883,-0.03554c-0.03941,-0.01132 -0.07912,-0.02225 -0.11893,-0.03307c-0.03941,-0.01083 -0.07902,-0.02126 -0.11883,-0.0316l-0.11893,-0.03022c-0.03951,-0.00975 -0.07902,-0.01929 -0.11893,-0.02855c-0.03941,-0.00915 -0.07902,-0.01802 -0.11883,-0.02668l-0.11893,-0.0253c-0.03951,-0.00817 -0.07892,-0.01644 -0.11883,-0.02412c-0.03941,-0.00768 -0.07922,-0.01477 -0.11893,-0.02205l-0.11883,-0.02087c-0.03951,-0.00669 -0.07902,-0.01349 -0.11893,-0.01979l-0.11883,-0.01802l-0.11893,-0.01673l-0.11883,-0.01575l-0.11893,-0.01408l-0.11883,-0.0128l-0.11893,-0.01191l-0.11893,-0.01043l-0.11883,-0.00916l-0.11893,-0.00846l-0.11883,-0.00679l-0.0472,-0.00266l-0.07173,-0.00443l-0.11883,-0.00699l-0.11893,-0.0066l-0.11883,-0.0062l-0.11893,-0.00571l-0.11883,-0.00512l-0.11893,-0.00433l-0.11883,-0.00364l-0.11893,-0.00266l-0.11893,-0.00158l-0.06552,-0.0002l-0.05331,0l-0.11893,0l-0.11883,0l-0.11893,0l-0.11883,0l-0.11893,0l-0.11883,0l-0.11893,0l-0.11883,0l-0.11893,0l-0.11893,0l-0.11883,0l-0.11893,0l-0.11883,0l-0.11893,0l-0.11883,0l-0.11893,0l-0.11883,0l-0.11893,0l-0.11883,0l-0.11893,0l-0.11883,0l-0.11893,0l-0.11893,0l-0.11883,0l-0.11893,0l-0.11883,0l-0.11893,0l-0.11883,0l-0.11893,0l-0.11883,0l-0.11893,0l-0.11883,0l-0.11893,0l-0.11883,0l-0.11893,0l-0.11893,0l-0.11883,0l-0.11893,0l-0.11883,0l-0.11893,0l-0.11883,0l-0.11893,0l-0.11883,0l-0.11893,0l-0.11883,0l-0.11893,0l-0.11883,0l-0.11893,0l-0.11893,0l-0.11883,0l-0.11893,0l-0.11883,0l-0.11893,0l-0.11883,0l-0.11893,0l-0.11883,0l-0.11893,0l-0.11883,0l-0.11893,0l-0.11883,0l-0.11893,0l-0.11893,0l-0.11883,0l-0.11893,0l-0.11883,0l-0.11893,0l-0.11883,0l-0.11893,0l-0.11883,0l-0.11893,0l-0.11883,0l-0.11893,0l-0.11883,0l-0.11893,0l-0.11893,0l-0.11883,0l-0.11893,0l-0.11883,0l-0.11893,0l-0.11883,0l-0.11893,0l-0.11883,0l-0.11893,0l-0.11883,0l-0.11893,0l-0.11883,0l-0.11893,0l-0.11893,0l-0.11883,0l-0.11893,0l-0.11883,0l-0.11893,0l-0.11883,0l-0.11893,0l-0.11883,0l-0.11893,0l-0.11883,0l-0.11893,0l-0.11883,0l-0.11893,0l-0.11893,0l-0.11883,0l-0.11893,0l-0.11883,0l-0.11893,0l-0.11883,0l-0.11893,0l-0.11883,0l-0.11893,0l-0.11883,0l-0.11893,0l-0.11883,0l-0.11893,0l-0.11893,0l-0.11883,0l-0.11893,0l-0.11883,0l-0.11893,0l-0.11883,0l-0.11893,0l-0.11883,0l-0.11893,0l-0.11883,0l-0.11893,0l-0.11883,0l-0.11893,0l-0.11893,0l-0.11883,0l-0.11893,0l-0.11883,0l-0.11893,0l-0.11883,0l-0.11893,0l-0.11883,0l-0.11893,0l-0.11883,0l-0.11893,0l-0.11883,0l-0.11893,0l-0.11893,0l-0.11883,0l-0.11893,0l-0.11883,0l-0.11893,0l-0.25648,0l0,-12.77923c0,-0.85972 0.08858,-1.69866 0.25648,-2.50867c0.03606,-0.17346 0.07577,-0.34544 0.11893,-0.51605c0.03695,-0.14599 0.07676,-0.2909 0.11883,-0.43473c0.03764,-0.12847 0.07725,-0.25606 0.11893,-0.38276c0.03803,-0.11577 0.07744,-0.23095 0.11883,-0.34515c0.03833,-0.10593 0.07774,-0.21126 0.11893,-0.31581c0.03853,-0.09766 0.07804,-0.19483 0.11893,-0.2912c0.03863,-0.09096 0.07814,-0.18153 0.11883,-0.27141c0.03862,-0.08535 0.07843,-0.17011 0.11893,-0.25438c0.03862,-0.08043 0.07843,-0.16027 0.11883,-0.23971c0.03882,-0.07639 0.07863,-0.1522 0.11893,-0.22771c0.03882,-0.07275 0.07853,-0.14501 0.11883,-0.21687c0.03902,-0.0697 0.07863,-0.13881 0.11893,-0.20762c0.03912,-0.06675 0.07853,-0.1332 0.11883,-0.19906c0.03912,-0.06389 0.07873,-0.12729 0.11893,-0.19039c0.03892,-0.06113 0.07882,-0.12168 0.11883,-0.18202c0.03921,-0.05907 0.07873,-0.11794 0.11893,-0.17631c0.03931,-0.0572 0.07853,-0.11439 0.11883,-0.1709c0.03912,-0.05474 0.07902,-0.10878 0.11893,-0.16283c0.03912,-0.05316 0.07892,-0.10593 0.11893,-0.1584c0.03941,-0.05168 0.07863,-0.10356 0.11883,-0.15456c0.03912,-0.04962 0.07912,-0.09844 0.11893,-0.14747c0.03921,-0.04834 0.07882,-0.09628 0.11883,-0.14393c0.03941,-0.04705 0.07882,-0.09411 0.11893,-0.14058c0.03912,-0.04528 0.07902,-0.08978 0.11883,-0.13448c0.03951,-0.0443 0.07882,-0.0887 0.11893,-0.13241c0.03921,-0.04282 0.07902,-0.08525 0.11883,-0.12759c0.03931,-0.04174 0.07902,-0.08318 0.11893,-0.12443c0.03941,-0.04066 0.07882,-0.08131 0.11883,-0.12148c0.03932,-0.03948 0.07912,-0.07836 0.11893,-0.11725c0.03951,-0.03869 0.07873,-0.07777 0.11883,-0.11587c0.03921,-0.03731 0.07922,-0.07374 0.11893,-0.11056c0.03951,-0.03662 0.07892,-0.07334 0.11893,-0.10947c0.03931,-0.03554 0.07912,-0.07039 0.11883,-0.10534c0.03951,-0.03475 0.07902,-0.0695 0.11893,-0.10376c0.03941,-0.03376 0.07902,-0.06704 0.11883,-0.10031c0.03951,-0.03298 0.07902,-0.06586 0.11893,-0.09835c0.03941,-0.03219 0.07902,-0.06399 0.11883,-0.09559l0.11893,-0.09342l0.11883,-0.09096c0.03951,-0.02983 0.07912,-0.05946 0.11893,-0.0888c0.03941,-0.02904 0.07902,-0.05798 0.11883,-0.08663l0.11893,-0.08437c0.03941,-0.02766 0.07902,-0.05513 0.11883,-0.0823l0.11893,-0.08043l0.11893,-0.07827c0.03951,-0.02569 0.07902,-0.05129 0.11883,-0.07649l0.11893,-0.07423c0.03961,-0.02451 0.07902,-0.04903 0.11883,-0.07305c0.03941,-0.02382 0.07922,-0.04696 0.11893,-0.07029c0.03961,-0.02333 0.07892,-0.04686 0.11883,-0.0697c0.03932,-0.02254 0.07932,-0.0443 0.11893,-0.06645c0.03961,-0.02215 0.07892,-0.04469 0.11883,-0.06635c0.03941,-0.02136 0.07932,-0.04204 0.11893,-0.06301c0.03961,-0.02097 0.07902,-0.04203 0.11883,-0.06261c0.03941,-0.02038 0.07922,-0.04017 0.11893,-0.06005c0.03951,-0.01979 0.07912,-0.03967 0.11883,-0.05907l0.11893,-0.05739c0.03951,-0.0188 0.07922,-0.03711 0.11893,-0.05552c0.03961,-0.01831 0.07902,-0.03692 0.11883,-0.05484c0.03941,-0.01772 0.07932,-0.03465 0.11893,-0.05198c0.03961,-0.01733 0.07902,-0.03495 0.11883,-0.05188c0.03942,-0.01674 0.07932,-0.03269 0.11893,-0.04903c0.03951,-0.01625 0.07902,-0.03269 0.11883,-0.04853l0.11893,-0.04676l0.11883,-0.04519c0.03971,-0.01496 0.07912,-0.03012 0.11893,-0.04459c0.03941,-0.01437 0.07922,-0.02786 0.11883,-0.04184c0.03971,-0.01398 0.07912,-0.02825 0.11893,-0.04184c0.03941,-0.01349 0.07922,-0.02619 0.11883,-0.03928l0.11893,-0.03849c0.03961,-0.0126 0.07912,-0.0253 0.11893,-0.03751c0.03941,-0.01211 0.07922,-0.02353 0.11883,-0.03524c0.03961,-0.01181 0.07912,-0.02402 0.11893,-0.03534c0.03941,-0.01123 0.07922,-0.02166 0.11883,-0.03249c0.03961,-0.01083 0.07912,-0.02176 0.11893,-0.03219l0.11883,-0.03071c0.03951,-0.00994 0.07922,-0.0194 0.11893,-0.02894c0.03961,-0.00955 0.07902,-0.01979 0.11883,-0.02894c0.03941,-0.00906 0.07932,-0.01733 0.11893,-0.02609l0.11883,-0.02589l0.11893,-0.02451c0.03941,-0.00787 0.07922,-0.01526 0.11883,-0.02274c0.03971,-0.00758 0.07912,-0.01565 0.11893,-0.02284c0.03951,-0.00719 0.07932,-0.01329 0.11893,-0.01998l0.11883,-0.01969c0.03961,-0.0063 0.07922,-0.0128 0.11893,-0.01871c0.03951,-0.0059 0.07922,-0.01112 0.11883,-0.01664c0.03971,-0.00551 0.07912,-0.01152 0.11893,-0.01663c0.03951,-0.00512 0.07922,-0.00965 0.11883,-0.01438l0.11893,-0.01358c0.03961,-0.00433 0.07912,-0.00915 0.11883,-0.01309c0.03951,-0.00394 0.07932,-0.00699 0.11893,-0.01053l0.11883,-0.01054l0.11893,-0.00896c0.03951,-0.00285 0.07922,-0.00512 0.11883,-0.00758c0.03961,-0.00236 0.07912,-0.00541 0.11893,-0.00748c0.03951,-0.00207 0.07932,-0.00325 0.11893,-0.00492l0.11883,-0.00443c0.03971,-0.00128 0.07922,-0.00295 0.11893,-0.00384c0.03951,-0.00089 0.07922,-0.00098 0.11883,-0.00158c0.03961,-0.00059 0.07922,-0.00128 0.11893,-0.00148l0.02985,-0.00039l0.08897,0l0.11893,0l0.11883,0l0.11893,0l0.11883,0l0.11893,0l0.11883,0l0.11893,0l0.11893,0l0.11883,0l0.11893,0l0.11883,0l0.11893,0l0.11883,0l0.11893,0l0.11883,0l0.11893,0l0.11883,0l0.11893,0l0.11883,0l0.11893,0l0.11893,0l0.11883,0l0.11893,0l0.11883,0l0.11893,0l0.11883,0l0.11893,0l0.11883,0l0.11893,0l0.11883,0l0.11893,0l0.11883,0l0.11893,0l0.11893,0l0.11883,0l0.11893,0l0.11883,0l0.11893,0l0.11883,0l0.11893,0l0.11883,0l0.11893,0l0.11883,0l0.11893,0l0.11893,0l0.11883,0l0.11893,0l0.11883,0l0.11893,0l0.11883,0l0.11893,0l0.11883,0l0.11893,0l0.11883,0l0.11893,0l0.11883,0l0.11893,0l0.11893,0l0.11883,0l0.11893,0l0.11883,0l0.11893,0l0.11883,0l0.11893,0l0.11883,0l0.11893,0l0.11883,0l0.11893,0l0.11883,0l0.11893,0l0.11893,0l0.11883,0l0.11893,0l0.11883,0l0.11893,0l0.11883,0l0.11893,0l0.11883,0l0.11893,0l0.11883,0l0.11893,0l0.11883,0l0.11893,0l0.11893,0l0.11883,0l0.11893,0l0.11883,0l0.11893,0l0.11883,0l0.11893,0l0.11883,0l0.11893,0l0.11883,0l0.11893,0l0.11883,0l0.11893,0l0.11893,0l0.11883,0l0.11893,0l0.11883,0l0.11893,0l0.11883,0l0.11893,0l0.11883,0l0.11893,0l0.11883,0l0.11893,0l0.11883,0l0.11893,0l0.11893,0l0.11883,0l0.11893,0l0.11883,0l0.11893,0l0.11883,0l0.11893,0l0.11883,0l0.11893,0l0.11883,0l0.11893,0l0.11883,0l0.11893,0l0.11893,0l0.11883,0l0.11893,0l0.11883,0l0.11893,0l0.11883,0l0.11893,0l0.11883,0l0.11893,0l0.11883,0l0.11893,0l0.11883,0l0.11893,0l0.11893,0l0.11893,0l0.11883,0l0.11893,0l0.11883,0l0.11893,0l0.11883,0l0.11893,0l0.11883,0l0.11893,0l0.11883,0l0.11893,0l0.11883,0l0.11893,0l0.11883,0l0.11893,0l0,-0.0001l0,0l0,0l0,0z"/>
     <path stroke="null" id="Shape" fill="#265797" d="m30.86142,56.69715c-0.08503,-0.04036 -0.16996,-0.08102 -0.2549,-0.12207l0,-30.3918c0,-0.85725 0.08789,-1.69404 0.2549,-2.50188c0.03587,-0.17346 0.07567,-0.34534 0.11873,-0.51605c0.03685,-0.14619 0.07656,-0.2912 0.11863,-0.43522c0.03754,-0.12837 0.07715,-0.25576 0.11863,-0.38236c0.03803,-0.11587 0.07735,-0.23125 0.11873,-0.34564c0.03833,-0.10583 0.07755,-0.21107 0.11863,-0.31552c0.03833,-0.09766 0.07794,-0.19502 0.11873,-0.29149c0.03853,-0.09096 0.07804,-0.18134 0.11863,-0.27112c0.03862,-0.08535 0.07823,-0.17002 0.11863,-0.25428c0.03862,-0.08053 0.07843,-0.16047 0.11873,-0.24001c0.03872,-0.07639 0.07833,-0.1522 0.11863,-0.22761c0.03882,-0.07275 0.07843,-0.14501 0.11863,-0.21687c0.03892,-0.0696 0.07843,-0.13881 0.11873,-0.20752c0.03902,-0.06674 0.07833,-0.13329 0.11863,-0.19925c0.03902,-0.06379 0.07863,-0.12709 0.11873,-0.1901c0.03882,-0.06104 0.07873,-0.12168 0.11863,-0.18202c0.03912,-0.05907 0.07853,-0.11794 0.11863,-0.17631c0.03941,-0.0573 0.07843,-0.11449 0.11873,-0.1711c0.03892,-0.05464 0.07883,-0.10858 0.11863,-0.16263c0.03921,-0.05316 0.07873,-0.10593 0.11873,-0.1584c0.03932,-0.05159 0.07853,-0.10356 0.11863,-0.15456c0.03902,-0.04952 0.07892,-0.09825 0.11863,-0.14718c0.03921,-0.04834 0.07873,-0.09648 0.11873,-0.14422c0.03931,-0.04696 0.07863,-0.09382 0.11863,-0.14019c0.03912,-0.04538 0.07892,-0.08998 0.11873,-0.13477c0.03931,-0.0444 0.07863,-0.0887 0.11863,-0.13241c0.03912,-0.04282 0.07892,-0.08506 0.11863,-0.12729c0.03932,-0.04184 0.07883,-0.08328 0.11873,-0.12453c0.03931,-0.04066 0.07873,-0.08132 0.11863,-0.12148c0.03922,-0.03948 0.07902,-0.07836 0.11873,-0.11725c0.03951,-0.03869 0.07863,-0.07767 0.11863,-0.11577c0.03912,-0.03731 0.07902,-0.07373 0.11863,-0.11055c0.03951,-0.03672 0.07873,-0.07354 0.11873,-0.10967c0.03922,-0.03544 0.07902,-0.07019 0.11863,-0.10514c0.03951,-0.03475 0.07882,-0.0696 0.11873,-0.10386c0.03931,-0.03376 0.07892,-0.06694 0.11863,-0.10021c0.03931,-0.03298 0.07882,-0.06596 0.11863,-0.09844c0.03931,-0.03209 0.07902,-0.06389 0.11873,-0.09559c0.03941,-0.0314 0.07882,-0.06251 0.11863,-0.09342c0.03931,-0.03061 0.07902,-0.06084 0.11873,-0.09096c0.03941,-0.02983 0.07892,-0.05956 0.11863,-0.0889l0.11863,-0.08643c0.03942,-0.02845 0.07892,-0.0567 0.11873,-0.08466c0.03931,-0.02766 0.07892,-0.05503 0.11863,-0.0822c0.03942,-0.02707 0.07892,-0.05395 0.11863,-0.08053c0.03941,-0.02628 0.07902,-0.05218 0.11873,-0.07807c0.03942,-0.02569 0.07883,-0.05159 0.11863,-0.07689c0.03931,-0.025 0.07902,-0.04942 0.11873,-0.07403c0.03951,-0.02451 0.07882,-0.04932 0.11863,-0.07334c0.03922,-0.02373 0.07902,-0.04676 0.11863,-0.07009c0.03961,-0.02333 0.07882,-0.04705 0.11873,-0.06999c0.03922,-0.02254 0.07912,-0.0441 0.11863,-0.06625c0.03961,-0.02215 0.07892,-0.0446 0.11873,-0.06635c0.03931,-0.02146 0.07902,-0.04213 0.11863,-0.0631c0.03951,-0.02097 0.07892,-0.04204 0.11863,-0.06261c0.03942,-0.02038 0.07902,-0.04036 0.11873,-0.06035l0.11863,-0.05887c0.03951,-0.0194 0.07902,-0.03879 0.11873,-0.05769c0.03941,-0.0188 0.07902,-0.03701 0.11863,-0.05542c0.03961,-0.01841 0.07882,-0.03721 0.11863,-0.05513c0.03931,-0.01782 0.07912,-0.03455 0.11873,-0.05188c0.03951,-0.01733 0.07892,-0.03495 0.11863,-0.05188c0.03941,-0.01673 0.07912,-0.03288 0.11873,-0.04922l0.11863,-0.04843l0.11863,-0.04706l0.11873,-0.04509c0.03961,-0.01496 0.07882,-0.03042 0.11863,-0.04499c0.03931,-0.01437 0.07922,-0.02776 0.11873,-0.04174c0.03951,-0.01398 0.07892,-0.02816 0.11863,-0.04174l0.11863,-0.03967l0.11873,-0.03849c0.03951,-0.0126 0.07892,-0.0255 0.11863,-0.0377c0.03931,-0.01211 0.07912,-0.02363 0.11863,-0.03534c0.03961,-0.01181 0.07902,-0.02382 0.11873,-0.03524c0.03941,-0.01132 0.07902,-0.02185 0.11863,-0.03278l0.11873,-0.03219c0.03951,-0.01043 0.07892,-0.02107 0.11863,-0.03111c0.03941,-0.01004 0.07912,-0.0192 0.11863,-0.02884c0.03951,-0.00965 0.07902,-0.01969 0.11873,-0.02894c0.03941,-0.00915 0.07912,-0.01772 0.11863,-0.02648l0.11873,-0.02579c0.03951,-0.00846 0.07892,-0.01703 0.11863,-0.025c0.03941,-0.00788 0.07912,-0.01516 0.11863,-0.02274c0.03961,-0.00758 0.07902,-0.01546 0.11873,-0.02264c0.03951,-0.00719 0.07902,-0.01369 0.11863,-0.02048l0.11873,-0.01969c0.03951,-0.0063 0.07892,-0.01309 0.11863,-0.0191c0.03941,-0.006 0.07912,-0.01103 0.11863,-0.01664c0.03951,-0.00551 0.07902,-0.01142 0.11873,-0.01664l0.11863,-0.01486l0.11873,-0.01349c0.03961,-0.00443 0.07892,-0.00955 0.11863,-0.01358c0.03941,-0.00404 0.07912,-0.00699 0.11863,-0.01063l0.11873,-0.01043c0.03951,-0.00335 0.07902,-0.0066 0.11863,-0.00945c0.03951,-0.00285 0.07912,-0.00512 0.11873,-0.00758c0.03961,-0.00246 0.07902,-0.00532 0.11863,-0.00748c0.03941,-0.00217 0.07902,-0.00364 0.11863,-0.00541l0.11873,-0.00453c0.03951,-0.00138 0.07892,-0.00345 0.11863,-0.00443c0.03941,-0.00098 0.07912,-0.00089 0.11863,-0.00148c0.03951,-0.00059 0.07912,-0.00128 0.11873,-0.00148l0.05271,-0.00069l0.06591,0l0.11873,0l0.11863,0l0.11863,0l0.11873,0l0.11863,0l0.11873,0l0.11863,0l0.11863,0l0.11873,0l0.11863,0l0.11873,0l0.11863,0l0.11863,0l0.11873,0l0.11863,0l0.11873,0l0.11863,0l0.11863,0l0.11873,0l0.11863,0l0.11873,0l0.11863,0l0.11863,0l0.11873,0l0.11863,0l0.11873,0l0.11863,0l0.11863,0l0.11873,0l0.11863,0l0.11873,0l0.11863,0l0.11863,0l0.11873,0l0.11863,0l0.11863,0l0.11873,0l0.11863,0l0.11873,0l0.11863,0l0.11863,0l0.11873,0l0.11863,0l0.11873,0l0.11863,0l0.11863,0l0.11873,0l0.11863,0l0.11873,0l0.11863,0l0.11863,0l0.11873,0l0.11863,0l0.11873,0l0.11863,0l0.11863,0l0.11873,0l0.11863,0l0.11863,0l0.11873,0l0.11863,0l0.11873,0l0.11863,0l0.11873,0l0.11863,0l0.11863,0l0.11873,0l0.11863,0l0.11863,0l0.11873,0l0.11863,0l0.11873,0l0.11863,0l0.11863,0l0.11873,0l0.11863,0l0.11873,0l0.11863,0l0.11863,0l0.11873,0l0.11863,0l0.11873,0l0.11863,0l0.11863,0l0.11873,0l0.11863,0l0.11863,0l0.11873,0l0.11863,0l0.11873,0l0.11863,0l0.11873,0l0.11863,0l0.11863,0l0.11873,0l0.11863,0l0.11873,0l0.11863,0l0.11863,0l0.11873,0l0.11863,0l0.11863,0l0.11873,0l0.11863,0l0.11873,0l0.11863,0l0.11873,0l0.11863,0l0.11863,0l0.11873,0l0.11863,0l0.11863,0l0.11873,0l0.11863,0l0.11873,0l0.11863,0l0.11863,0l0.11873,0l0.11863,0l0.11863,0l0.11873,0l0.11863,0l0.11873,0l0.11863,0l0.11873,0l0.11863,0l0.11863,0l0.11873,0l0.11863,0l0.11863,0l0.11873,0l0.11863,0l0.11873,0l0.11863,0l0.11863,0l0.11873,0l0.11863,0l0.11873,0l0.11863,0l0.11863,0l0.11873,0l0.11863,0l0.11873,0l0.11863,0l0.11863,0l0.11873,0l0.11863,0l0.11863,0l0.11873,0l0.11863,0l0.11873,0l0.1007,0l0,61.52991c0,0.53525 -0.03439,1.06252 -0.1007,1.57975c-0.03193,0.24906 -0.07213,0.49547 -0.11873,0.73962c-0.03547,0.18566 -0.07488,0.36995 -0.11863,0.55257c-0.03685,0.15387 -0.07627,0.30666 -0.11873,0.45826c-0.03734,0.133 -0.07705,0.26501 -0.11863,0.39604c-0.03774,0.11873 -0.07745,0.23656 -0.11863,0.35371c-0.03813,0.10839 -0.07764,0.21619 -0.11873,0.32319c-0.03833,0.09992 -0.07784,0.19916 -0.11863,0.29779c-0.03843,0.09283 -0.07804,0.18527 -0.11863,0.27693c-0.03862,0.08702 -0.07823,0.17346 -0.11873,0.2595c-0.03862,0.082 -0.07823,0.16342 -0.11863,0.24444c-0.03882,0.07777 -0.07833,0.15505 -0.11873,0.23184c-0.03882,0.07393 -0.07833,0.14747 -0.11863,0.22052c-0.03902,0.07068 -0.07823,0.14107 -0.11863,0.21087c-0.03892,0.06734 -0.07853,0.13428 -0.11873,0.20083c-0.03882,0.06438 -0.07863,0.12808 -0.11863,0.19167c-0.03902,0.06212 -0.07863,0.12384 -0.11873,0.18518c-0.03921,0.05995 -0.07843,0.11981 -0.11863,0.17897c-0.03902,0.05739 -0.07873,0.11439 -0.11863,0.1711c-0.03902,0.05542 -0.07873,0.11036 -0.11873,0.16519c-0.03922,0.05385 -0.07863,0.1075 -0.11863,0.16066c-0.03912,0.05198 -0.07873,0.10356 -0.11873,0.15485c-0.03912,0.05011 -0.07883,0.09973 -0.11863,0.14924c-0.03931,0.04893 -0.07863,0.09785 -0.11863,0.14609c-0.03912,0.04716 -0.07892,0.09372 -0.11873,0.14028c-0.03922,0.04588 -0.07873,0.09136 -0.11863,0.13664c-0.03941,0.04469 -0.07863,0.08958 -0.11863,0.13369c-0.03912,0.04312 -0.07902,0.08545 -0.11873,0.12808c-0.03941,0.04223 -0.07863,0.08456 -0.11863,0.12621c-0.03922,0.04086 -0.07892,0.08112 -0.11873,0.12148c-0.03931,0.03987 -0.07873,0.07945 -0.11863,0.11882c-0.03932,0.03889 -0.07883,0.07748 -0.11873,0.11587c-0.03921,0.0377 -0.07892,0.07492 -0.11863,0.11213c-0.03942,0.03692 -0.07873,0.07393 -0.11863,0.11036c-0.03922,0.03573 -0.07902,0.07078 -0.11873,0.10602c-0.03951,0.03515 -0.07863,0.07058 -0.11863,0.10514c-0.03912,0.03386 -0.07912,0.06684 -0.11863,0.10031c-0.03951,0.03338 -0.07882,0.06704 -0.11873,0.09992c-0.03922,0.03229 -0.07902,0.06389 -0.11863,0.09559c-0.03951,0.0317 -0.07882,0.0637 -0.11873,0.0949c-0.03922,0.03072 -0.07902,0.06064 -0.11863,0.09087c-0.03951,0.03012 -0.07873,0.06045 -0.11863,0.09008c-0.03922,0.02924 -0.07912,0.05769 -0.11873,0.08653c-0.03951,0.02865 -0.07873,0.05759 -0.11863,0.08585c-0.03922,0.02776 -0.07902,0.05493 -0.11863,0.0822c-0.03961,0.02737 -0.07882,0.05503 -0.11873,0.08191c-0.03921,0.02638 -0.07902,0.05208 -0.11863,0.07807c-0.03961,0.02599 -0.07882,0.05247 -0.11873,0.07806c-0.03921,0.02511 -0.07912,0.04922 -0.11863,0.07393c-0.03951,0.02471 -0.07882,0.04981 -0.11873,0.07403c-0.03931,0.02392 -0.07912,0.04716 -0.11863,0.07058c-0.03951,0.02343 -0.07882,0.04706 -0.11863,0.07009c-0.03941,0.02274 -0.07902,0.04499 -0.11873,0.06734c-0.03941,0.02225 -0.07892,0.04449 -0.11863,0.06625c-0.03941,0.02166 -0.07892,0.04312 -0.11863,0.06429l-0.11873,0.06261c-0.03951,0.02057 -0.07892,0.04115 -0.11863,0.06133c-0.03941,0.01998 -0.07902,0.03938 -0.11873,0.05897c-0.03951,0.01949 -0.07882,0.03957 -0.11863,0.05867c-0.03931,0.0189 -0.07912,0.03692 -0.11863,0.05542c-0.03961,0.01851 -0.07892,0.03731 -0.11873,0.05543c-0.03931,0.01792 -0.07912,0.03505 -0.11863,0.05257l-0.11873,0.05188l-0.11863,0.05031c-0.03941,0.01644 -0.07912,0.03239 -0.11873,0.04843c-0.03951,0.01605 -0.07892,0.03239 -0.11863,0.04804c-0.03932,0.01546 -0.07902,0.02993 -0.11863,0.04499c-0.03961,0.01506 -0.07892,0.03042 -0.11873,0.04509c-0.03941,0.01457 -0.07902,0.02845 -0.11863,0.04263l-0.11863,0.04174l-0.11873,0.04066c-0.03941,0.01319 -0.07912,0.02579 -0.11863,0.03849c-0.03961,0.0128 -0.07892,0.02609 -0.11873,0.03849c-0.03931,0.01231 -0.07912,0.02363 -0.11863,0.03554l-0.11863,0.03524l-0.11873,0.03377c-0.03941,0.01102 -0.07902,0.02146 -0.11863,0.03209c-0.03961,0.01063 -0.07902,0.02185 -0.11873,0.03199c-0.03931,0.01014 -0.07922,0.01919 -0.11863,0.02894c-0.03951,0.00975 -0.07902,0.01959 -0.11863,0.02894l-0.11873,0.02727l-0.11863,0.02589c-0.03961,0.00856 -0.07892,0.01772 -0.11873,0.02589c-0.03942,0.00807 -0.07912,0.01496 -0.11863,0.02264c-0.03951,0.00768 -0.07902,0.01546 -0.11863,0.02274l-0.11873,0.02136c-0.03941,0.00689 -0.07902,0.01309 -0.11863,0.01959c-0.03961,0.0065 -0.07902,0.01359 -0.11863,0.01969c-0.03941,0.0061 -0.07912,0.01122 -0.11873,0.01693l-0.11863,0.01664c-0.03951,0.00532 -0.07902,0.01073 -0.11873,0.01565c-0.03941,0.00492 -0.07912,0.00906 -0.11863,0.01358c-0.03961,0.00453 -0.07902,0.00945 -0.11873,0.01359c-0.03941,0.00413 -0.07902,0.00768 -0.11863,0.01142l-0.11863,0.01053c-0.03961,0.00335 -0.07902,0.00748 -0.11873,0.01044c-0.03942,0.00295 -0.07912,0.00492 -0.11863,0.00748l-0.11863,0.00748l-0.11873,0.0063c-0.03941,0.00187 -0.07912,0.00305 -0.11863,0.00453c-0.03961,0.00148 -0.07912,0.00335 -0.11873,0.00453c-0.03941,0.00108 -0.07912,0.00148 -0.11863,0.00227l-0.11863,0.00148c-0.03665,0.00029 -0.07321,0.00138 -0.11006,0.00138l-0.00867,0l-0.11863,0l-0.11873,0l-0.11863,0l-0.11863,0l-0.11873,0l-0.11863,0l-0.11873,0l-0.11863,0l-0.11863,0l-0.11873,0l-0.11863,0l-0.11873,0l-0.11863,0l-0.11863,0l-0.11873,0l-0.11863,0l-0.11863,0l-0.11873,0l-0.11863,0l-0.11873,0l-0.11863,0l-0.11863,0l-0.11873,0l-0.11863,0l-0.11873,0l-0.11863,0l-0.11863,0l-0.11873,0l-0.11863,0l-0.11873,0l-0.11863,0l-0.11863,0l-0.11873,0l-0.11863,0l-0.11873,0l-0.11863,0l-0.11863,0l-0.11873,0l-0.11863,0l-0.11873,0l-0.11863,0l-0.11863,0l-0.11873,0l-0.11863,0l-0.11873,0l-0.11863,0l-0.11863,0l-0.11873,0l-0.11863,0l-0.11873,0l-0.11863,0l-0.11863,0l-0.11873,0l-0.11863,0l-0.11863,0l-0.11873,0l-0.11863,0l-0.11873,0l-0.11863,0l-0.11863,0l-0.11873,0l-0.11863,0l-0.11873,0l-0.11863,0l-0.11863,0l-0.11873,0l-0.11863,0l-0.11873,0l-0.11863,0l-0.11863,0l-0.11873,0l-0.11863,0l-0.11873,0l-0.11863,0l-0.11863,0l-0.11873,0l-0.11863,0l-0.11873,0l-0.11863,0l-0.11863,0l-0.11873,0l-0.11863,0l-0.11863,0l-0.11873,0l-0.11863,0l-0.11873,0l-0.11863,0l-0.11863,0l-0.11873,0l-0.11863,0l-0.11873,0l-0.11863,0l-0.11863,0l-0.11873,0l-0.11863,0l-0.11873,0l-0.11863,0l-0.11863,0l-0.11873,0l-0.11863,0l-0.11873,0l-0.11863,0l-0.11863,0l-0.11873,0l-0.11863,0l-0.11873,0l-0.11863,0l-0.11863,0l-0.11873,0l-0.11863,0l-0.11863,0l-0.11873,0l-0.11863,0l-0.11873,0l-0.11863,0l-0.11863,0l-0.11873,0l-0.11863,0l-0.11873,0l-0.11863,0l-0.11863,0l-0.11873,0l-0.11863,0l-0.11873,0l-0.11863,0l-0.11863,0l-0.11873,0l-0.11863,0l-0.11873,0l-0.11863,0l-0.11863,0l-0.11873,0l-0.11863,0l-0.11873,0l-0.11863,0l-0.11863,0l-0.11873,0l-0.11863,0l-0.11873,0l-0.11863,0l-0.11863,0l-0.11873,0l-0.11863,0l-0.11863,0l-0.11873,0l-0.11863,0l-0.11873,0l-0.11863,0l-0.11863,0l-0.11873,0l-0.2549,0l0,-25.93421c0,0 0.08769,0.02412 0.2549,0.06625l0.11873,0.02963l0.11863,0.02894l0.11863,0.02845l0.11873,0.02806l0.11863,0.02756l0.11873,0.02717l0.11863,0.02678l0.11863,0.02638l0.11873,0.02599l0.11863,0.02569l0.11863,0.0253l0.11873,0.02501l0.11863,0.02471l0.11873,0.02422l0.11863,0.02402l0.11863,0.02373l0.11873,0.02343l0.11863,0.02304l0.11873,0.02294l0.11863,0.02255l0.11863,0.02215l0.11873,0.02195l0.11863,0.02166l0.11873,0.02136l0.11863,0.02117l0.11863,0.02077l0.11873,0.02057l0.11863,0.02018l0.11873,0.01998l0.11863,0.01969l0.11863,0.01949l0.11873,0.0192l0.11863,0.0189l0.11873,0.0187l0.11863,0.01841l0.11863,0.01821l0.11873,0.01782l0.11863,0.01762l0.11873,0.01733l0.11863,0.01713l0.11863,0.01683l0.11873,0.01664l0.11863,0.01624l0.11863,0.01615l0.11873,0.01575l0.11863,0.01555l0.11873,0.01536l0.11863,0.01496l0.11863,0.01486l0.11873,0.01447l0.11863,0.01438l0.11873,0.01388l0.11863,0.01388l0.11863,0.01339l0.11873,0.01339l0.11863,0.01299l0.11873,0.0127l0.11863,0.0126l0.11863,0.01211l0.11873,0.01211l0.11863,0.01162l0.11873,0.01152l0.11863,0.01132l0.11863,0.01083l0.11873,0.01092l0.11863,0.01024l0.11873,0.01024l0.11863,0.00994l0.11863,0.00965l0.11873,0.00955l0.11863,0.00896l0.11863,0.00906l0.11873,0.00856l0.11863,0.00837l0.11873,0.00827l0.11863,0.00768l0.11863,0.00768l0.11873,0.00738l0.11863,0.00699l0.11873,0.00699l0.11863,0.0064l0.11863,0.0063l0.11873,0.00611l0.11863,0.00561l0.11873,0.00561l0.11863,0.00512l0.11863,0.00492l0.11873,0.00492l0.11863,0.00413l0.11873,0.00423l0.11863,0.00394l0.11863,0.00344l0.11873,0.00354l0.11863,0.00296l0.11873,0.00266l0.11863,0.00276l0.11863,0.00197l0.11873,0.00197l0.11863,0.00177l0.11863,0.00118l0.11873,0.00128l0.11863,0.00089l0.11873,0.00039l0.11863,0.00029l0.04582,0.0002l0.07281,-0.00039l0.11873,-0.00079l0.11863,-0.00069l0.11873,-0.00069l0.11863,-0.00069l0.11863,-0.00217l0.11873,-0.00216l0.11863,-0.00217l0.11873,-0.00217l0.11863,-0.00295l0.11863,-0.00374l0.11873,-0.00364l0.11863,-0.00364l0.11873,-0.00394l0.11863,-0.00522l0.11863,-0.00522l0.11873,-0.00532l0.11863,-0.00522l0.11873,-0.0066l0.11863,-0.00679l0.11863,-0.00689l0.11873,-0.00689l0.11863,-0.00788l0.11873,-0.00856l0.11863,-0.00847l0.11863,-0.00856l0.11873,-0.00945l0.11863,-0.01024l0.11873,-0.01024l0.11863,-0.01034l0.11863,-0.01112l0.11873,-0.01211l0.11863,-0.01201l0.11863,-0.01211l0.11873,-0.01319l0.11863,-0.01388l0.11873,-0.01398l0.11863,-0.01388l0.11863,-0.01546l0.11873,-0.01585l0.11863,-0.01585l0.11873,-0.01615c0.04,-0.00571 0.07892,-0.01201 0.11863,-0.01782l0.11863,-0.01782l0.11873,-0.01792l0.11863,-0.0188c0.0399,-0.0064 0.07902,-0.01339 0.11873,-0.01998l0.11863,-0.01989c0.03932,-0.00669 0.07961,-0.01309 0.11863,-0.01998c0.04,-0.00709 0.07892,-0.01467 0.11873,-0.02196l0.11863,-0.02215l0.11873,-0.02215l0.11863,-0.02323c0.0399,-0.00787 0.07902,-0.01634 0.11863,-0.02441l0.11873,-0.02442l0.11863,-0.02481c0.0401,-0.00856 0.07892,-0.01782 0.11863,-0.02668l0.11873,-0.02678c0.03931,-0.00906 0.07961,-0.01752 0.11863,-0.02668c0.0401,-0.00945 0.07902,-0.0194 0.11873,-0.02894l0.11863,-0.02924c0.03941,-0.00975 0.07961,-0.0192 0.11873,-0.02914c0.0399,-0.01014 0.07912,-0.02077 0.11863,-0.03111l0.11863,-0.0317c0.03951,-0.01063 0.07961,-0.02097 0.11873,-0.0318c0.03991,-0.01093 0.07912,-0.02235 0.11863,-0.03357l0.11863,-0.03436c0.03951,-0.01152 0.07961,-0.02274 0.11873,-0.03446l0.11863,-0.03632l0.11873,-0.03721c0.03941,-0.0124 0.07961,-0.02451 0.11863,-0.03721l0.11863,-0.03948l0.11873,-0.04017c0.03941,-0.01349 0.07971,-0.02648 0.11863,-0.04017c0.0401,-0.01408 0.07902,-0.02875 0.11873,-0.04302l0.11863,-0.04322c0.03951,-0.01467 0.07951,-0.02904 0.11863,-0.04391c0.0401,-0.01516 0.07912,-0.03091 0.11873,-0.04637c0.03961,-0.01546 0.07951,-0.03081 0.11863,-0.04647l0.11873,-0.04824l0.11863,-0.04982c0.03941,-0.01663 0.07971,-0.03278 0.11863,-0.04971c0.0402,-0.01742 0.07902,-0.03564 0.11873,-0.05336l0.11863,-0.05326l0.11863,-0.05513c0.03991,-0.0188 0.07932,-0.038 0.11873,-0.0571c0.03951,-0.0191 0.07971,-0.038 0.11863,-0.05739c0.0402,-0.02008 0.07912,-0.04076 0.11873,-0.06104c0.03961,-0.02028 0.07961,-0.04036 0.11863,-0.06094c0.0401,-0.02107 0.07922,-0.04263 0.11873,-0.06409c0.03981,-0.02156 0.07942,-0.04322 0.11863,-0.06507c0.03991,-0.02225 0.07942,-0.04469 0.11863,-0.06724c0.04,-0.02294 0.07942,-0.04627 0.11873,-0.0696c0.03971,-0.02353 0.07952,-0.04705 0.11863,-0.07088c0.0401,-0.02451 0.07932,-0.04932 0.11873,-0.07413c0.03971,-0.02491 0.07961,-0.04982 0.11863,-0.07511c0.0401,-0.02599 0.07922,-0.05267 0.11863,-0.07905c0.03971,-0.02668 0.07971,-0.05306 0.11873,-0.08004c0.0402,-0.02776 0.07922,-0.05601 0.11863,-0.08417c0.03971,-0.02835 0.07971,-0.0568 0.11863,-0.08555c0.0402,-0.02963 0.07942,-0.05966 0.11873,-0.08968c0.0399,-0.03042 0.07961,-0.06103 0.11863,-0.09185c0.04001,-0.0316 0.07951,-0.0636 0.11873,-0.09569c0.04,-0.03278 0.07951,-0.06596 0.11863,-0.09913c0.03991,-0.03387 0.07981,-0.06763 0.11873,-0.10189c0.0403,-0.03544 0.07932,-0.07157 0.11863,-0.1075c0.03981,-0.03643 0.07981,-0.07275 0.11863,-0.10967c0.0403,-0.03829 0.07961,-0.07698 0.11873,-0.11577c0.0401,-0.03977 0.07961,-0.07994 0.11863,-0.1202c0.0399,-0.04115 0.07991,-0.0822 0.11863,-0.12384c0.0404,-0.04361 0.07951,-0.08771 0.11873,-0.13192c0.0403,-0.04538 0.07971,-0.09116 0.11863,-0.13714c0.0401,-0.04735 0.08001,-0.0948 0.11873,-0.14284c0.0402,-0.04991 0.07991,-0.09983 0.11863,-0.15033c0.0405,-0.05286 0.07971,-0.10622 0.11863,-0.15978c0.0405,-0.05572 0.07991,-0.11183 0.11873,-0.16834c0.0405,-0.05887 0.08001,-0.11823 0.11863,-0.17799c0.0405,-0.06261 0.08011,-0.12571 0.11863,-0.18931c0.04059,-0.06714 0.0803,-0.13457 0.11873,-0.2027c0.04079,-0.07216 0.0803,-0.14481 0.11863,-0.21806c0.04099,-0.07836 0.0805,-0.15722 0.11873,-0.23666c0.04119,-0.08545 0.0806,-0.17169 0.11863,-0.25842c0.04128,-0.09431 0.08099,-0.18921 0.11873,-0.285c0.04158,-0.10563 0.08129,-0.21215 0.11863,-0.31955c0.04237,-0.12188 0.08168,-0.24503 0.11863,-0.36917c0.04316,-0.14511 0.08267,-0.29169 0.11873,-0.43965c0.04473,-0.1836 0.08444,-0.36927 0.11863,-0.557c0.05084,-0.27949 0.09006,-0.5634 0.11863,-0.85106c0.0399,-0.40116 0.05931,-0.80951 0.05931,-1.22426l0,-14.27815l-0.05931,0l-0.11863,0l-0.11863,0l-0.11873,0l-0.11863,0l-0.11863,0l-0.11873,0l-0.11863,0l-0.11873,0l-0.11863,0l-0.11873,0l-0.11863,0l-0.11863,0l-0.11873,0l-0.11863,0l-0.11863,0l-0.11873,0l-0.11863,0l-0.11873,0l-0.11863,0l-0.11863,0l-0.11873,0l-0.11863,0l-0.11863,0l-0.11873,0l-0.11863,0l-0.11873,0l-0.11863,0l-0.11873,0l-0.11863,0l-0.11863,0l-0.11873,0l-0.11863,0l-0.11863,0l-0.11873,0l-0.11863,0l-0.11873,0l-0.11863,0l-0.11863,0l-0.11873,0l-0.11863,0l-0.11873,0l-0.11863,0l-0.11873,0l-0.11863,0l-0.11863,0l-0.11873,0l-0.11863,0l-0.11863,0l-0.11873,0l-0.11863,0l-0.11873,0l-0.11863,0l-0.11863,0l-0.11873,0l-0.11863,0l-0.11873,0l-0.11863,0l-0.11863,0l-0.11873,0l-0.11863,0l-0.11873,0l-0.11863,0l-0.11863,0l-0.11873,0l-0.11863,0l-0.11863,0l-0.11873,0l-0.11863,0l-0.11873,0l-0.11863,0l-0.11873,0l-0.11863,0l-0.11863,0l-0.11873,0l-0.11863,0l-0.11863,0l-0.11873,0l-0.11863,0l-0.11873,0l-0.11863,0l-0.11863,0l-0.11873,0l-0.11863,0l-0.11873,0l-0.11863,0l-0.11863,0l-0.11873,0l-0.11863,0l-0.08996,0l0,14.27815c0,0.22347 -0.00975,0.4434 -0.02877,0.65909c-0.02424,0.27476 -0.06395,0.54263 -0.11863,0.80311c-0.0338,0.16086 -0.07341,0.31877 -0.11863,0.47372c-0.03606,0.12345 -0.07548,0.24493 -0.11873,0.36434c-0.03685,0.10169 -0.07656,0.20171 -0.11863,0.30036c-0.03754,0.08801 -0.07705,0.17464 -0.11873,0.26009c-0.03794,0.07777 -0.07725,0.15466 -0.11863,0.23017c-0.03803,0.0695 -0.07784,0.13763 -0.11863,0.20516c-0.03833,0.0635 -0.07784,0.12621 -0.11873,0.18793c-0.03843,0.05789 -0.07804,0.11498 -0.11863,0.1713c-0.03863,0.05365 -0.07794,0.10691 -0.11863,0.15918c-0.03862,0.04961 -0.07833,0.09825 -0.11873,0.14649c-0.03872,0.04617 -0.07823,0.09165 -0.11863,0.13664c-0.03882,0.04331 -0.07833,0.08614 -0.11873,0.12817c-0.03892,0.04056 -0.07833,0.08072 -0.11863,0.1202c-0.03892,0.0381 -0.07843,0.0759 -0.11863,0.11292c-0.03892,0.03583 -0.07863,0.07098 -0.11873,0.10583c-0.03892,0.03377 -0.07853,0.06714 -0.11863,0.09992c-0.03902,0.0319 -0.07873,0.0633 -0.11873,0.09431c-0.03902,0.03013 -0.07863,0.05985 -0.11863,0.08919c-0.03912,0.02855 -0.07863,0.0567 -0.11863,0.08437c-0.03912,0.02707 -0.07863,0.05365 -0.11873,0.07994c-0.03912,0.02559 -0.07863,0.0508 -0.11863,0.0756c-0.03912,0.02422 -0.07873,0.04804 -0.11873,0.07147c-0.03912,0.02294 -0.07873,0.04538 -0.11863,0.06763c-0.03912,0.02176 -0.07873,0.04292 -0.11863,0.06399c-0.03922,0.02067 -0.07873,0.04086 -0.11873,0.06074c-0.03921,0.01949 -0.07873,0.03869 -0.11863,0.05759c-0.03931,0.01851 -0.07873,0.03692 -0.11873,0.05474c-0.03931,0.01752 -0.07873,0.03485 -0.11863,0.05168c-0.03912,0.01654 -0.07882,0.03249 -0.11863,0.04834c-0.03921,0.01565 -0.07892,0.03091 -0.11873,0.04588c-0.03932,0.01477 -0.07873,0.02924 -0.11863,0.04341c-0.03931,0.01398 -0.07882,0.02786 -0.11873,0.04115c-0.03922,0.01309 -0.07883,0.02589 -0.11863,0.0384c-0.03921,0.01231 -0.07892,0.02412 -0.11863,0.03583c-0.03931,0.01162 -0.07892,0.02304 -0.11873,0.03396c-0.03941,0.01083 -0.07882,0.02176 -0.11863,0.03199c-0.03931,0.01014 -0.07892,0.01989 -0.11873,0.02944c-0.03921,0.00945 -0.07882,0.01851 -0.11863,0.02737c-0.03931,0.00876 -0.07882,0.01742 -0.11863,0.02569c-0.03941,0.00817 -0.07882,0.01615 -0.11873,0.02373c-0.03931,0.00748 -0.07892,0.01447 -0.11863,0.02146c-0.03941,0.00689 -0.07892,0.01378 -0.11873,0.02018l-0.11863,0.01811c-0.03932,0.00571 -0.07892,0.01093 -0.11863,0.01615c-0.03941,0.00522 -0.07882,0.01034 -0.11873,0.01496l-0.11863,0.01319c-0.03931,0.00404 -0.07892,0.00758 -0.11863,0.01122c-0.03951,0.00355 -0.07892,0.00719 -0.11873,0.01024c-0.03931,0.00305 -0.07892,0.00571 -0.11863,0.00827c-0.03941,0.00256 -0.07902,0.00473 -0.11873,0.00679c-0.03951,0.00207 -0.07882,0.00413 -0.11863,0.00571c-0.03931,0.00158 -0.07902,0.00246 -0.11863,0.00364l-0.11873,0.00276c-0.03931,0.00069 -0.07892,0.00089 -0.11863,0.00118l-0.04464,0.00039l-0.0741,-0.0003l-0.11863,-0.00079l-0.11863,-0.00167l-0.11873,-0.00246l-0.11863,-0.00315l-0.11873,-0.00384l-0.11863,-0.00482l-0.11863,-0.00551l-0.11873,-0.00601l-0.11863,-0.00709l-0.11873,-0.00768l-0.11863,-0.00837l-0.11863,-0.00925l-0.11873,-0.00994l-0.11863,-0.01063l-0.11873,-0.01132l-0.11863,-0.01221l-0.11863,-0.0128l-0.11873,-0.01348l-0.11863,-0.01438l-0.11863,-0.01506l-0.11873,-0.01555l-0.11863,-0.01654l-0.11873,-0.01723l-0.11863,-0.01772l-0.11863,-0.01851l-0.11873,-0.0193l-0.11863,-0.01988l-0.11873,-0.02057l-0.11863,-0.02146l-0.11863,-0.02195l-0.11873,-0.02264l-0.11863,-0.02333l-0.11873,-0.02412l-0.11863,-0.02471l-0.11863,-0.0253l-0.11873,-0.02609l-0.11863,-0.02678l-0.11873,-0.02727l-0.11863,-0.02805l-0.11863,-0.02875l-0.11873,-0.02934l-0.11863,-0.02983l-0.11873,-0.03091l-0.11863,-0.0313l-0.11863,-0.0318l-0.11873,-0.03259l-0.11863,-0.03318l-0.11863,-0.03386l-0.11873,-0.03436l-0.11863,-0.03524l-0.11873,-0.03574l-0.11863,-0.03623l-0.11863,-0.03702l-0.11873,-0.03761l-0.11863,-0.0381l-0.11873,-0.03869l-0.11863,-0.03948l-0.11863,-0.03997l-0.11873,-0.04066l-0.11863,-0.04105l-0.11873,-0.04194l-0.11863,-0.04233l-0.11863,-0.04272l-0.11873,-0.04371l-0.11863,-0.0441l-0.11873,-0.0447l-0.11863,-0.04519l-0.11863,-0.04588l-0.11873,-0.04637l-0.11863,-0.04696l-0.11873,-0.04755l-0.11863,-0.04804l-0.11863,-0.04863l-0.11873,-0.04912l-0.11863,-0.04981l-0.11873,-0.05031l-0.11863,-0.0508l-0.11863,-0.05129l-0.11873,-0.05207l-0.11863,-0.05237l-0.11863,-0.05286l-0.11873,-0.05346l-0.11863,-0.05405l-0.11873,-0.05454l-0.11863,-0.05503l-0.11863,-0.05562l-0.11873,-0.05602l0,-0.0001l0,0l0,0l0,0z"/>
     <path stroke="null" id="Shape" fill="#CA4638" d="m65.34731,42.08251c-0.08651,0.0699 -0.17164,0.14038 -0.2548,0.21176l0,-16.111c0,-0.85676 0.08799,-1.69305 0.2548,-2.5006c0.03587,-0.17336 0.07557,-0.34515 0.11863,-0.51575c0.03695,-0.14639 0.07666,-0.29159 0.11873,-0.43581c0.03754,-0.12847 0.07715,-0.25605 0.11873,-0.38276c0.03793,-0.11577 0.07735,-0.23095 0.11863,-0.34515c0.03823,-0.10583 0.07764,-0.21116 0.11873,-0.31562c0.03843,-0.09766 0.07784,-0.19482 0.11863,-0.2913c0.03853,-0.09096 0.07804,-0.18133 0.11863,-0.27122c0.03853,-0.08535 0.07833,-0.17011 0.11873,-0.25438c0.03862,-0.08053 0.07833,-0.16027 0.11863,-0.23981c0.03872,-0.07639 0.07843,-0.15219 0.11873,-0.2277c0.03882,-0.07275 0.07843,-0.14501 0.11863,-0.21687c0.03892,-0.0696 0.07843,-0.13891 0.11873,-0.20762c0.03902,-0.06675 0.07833,-0.1332 0.11863,-0.19916c0.03892,-0.0637 0.07853,-0.127 0.11863,-0.1899c0.03902,-0.06123 0.07873,-0.12177 0.11873,-0.18222c0.03912,-0.05916 0.07853,-0.11794 0.11863,-0.17631c0.03931,-0.0573 0.07853,-0.11459 0.11873,-0.1711c0.03892,-0.05474 0.07882,-0.10859 0.11863,-0.16253c0.03921,-0.05316 0.07873,-0.10602 0.11873,-0.15849c0.03932,-0.05168 0.07853,-0.10347 0.11863,-0.15446c0.03892,-0.04952 0.07902,-0.09835 0.11873,-0.14727c0.03922,-0.04834 0.07873,-0.09648 0.11863,-0.14412c0.03931,-0.04706 0.07873,-0.09392 0.11873,-0.14028c0.03912,-0.04528 0.07892,-0.08998 0.11863,-0.13467c0.03931,-0.0443 0.07873,-0.0888 0.11873,-0.13261c0.03912,-0.04282 0.07883,-0.08516 0.11853,-0.12739c0.03922,-0.04174 0.07882,-0.08318 0.11863,-0.12443c0.03941,-0.04066 0.07882,-0.08131 0.11873,-0.12148c0.03922,-0.03938 0.07892,-0.07826 0.11863,-0.11715c0.03951,-0.03869 0.07873,-0.07768 0.11873,-0.11587c0.03912,-0.03731 0.07902,-0.07374 0.11863,-0.11056c0.03941,-0.03672 0.07873,-0.07354 0.11873,-0.10967c0.03922,-0.03544 0.07902,-0.07029 0.11863,-0.10524c0.03941,-0.03485 0.07882,-0.0696 0.11873,-0.10386c0.03932,-0.03376 0.07892,-0.06694 0.11863,-0.10021c0.03941,-0.03298 0.07892,-0.06596 0.11873,-0.09854c0.03932,-0.03209 0.07892,-0.06389 0.11863,-0.09549c0.03941,-0.0314 0.07892,-0.06261 0.11873,-0.09352c0.03932,-0.03052 0.07893,-0.06074 0.11863,-0.09087c0.03941,-0.02983 0.07892,-0.05956 0.11863,-0.0889c0.03931,-0.02914 0.07902,-0.05788 0.11873,-0.08653c0.03941,-0.02835 0.07892,-0.0567 0.11863,-0.08466c0.03941,-0.02767 0.07902,-0.05493 0.11873,-0.0822c0.03941,-0.02707 0.07892,-0.05405 0.11863,-0.08062c0.03931,-0.02629 0.07902,-0.05218 0.11873,-0.07807c0.03941,-0.02579 0.07882,-0.05159 0.11863,-0.07689c0.03941,-0.025 0.07902,-0.04942 0.11873,-0.07403c0.03951,-0.02451 0.07882,-0.04932 0.11863,-0.07334c0.03931,-0.02382 0.07912,-0.04686 0.11873,-0.07019c0.03961,-0.02333 0.07883,-0.04715 0.11863,-0.06999c0.03921,-0.02254 0.07922,-0.0442 0.11873,-0.06635c0.03961,-0.02215 0.07882,-0.0445 0.11863,-0.06616c0.03931,-0.02146 0.07902,-0.04213 0.11863,-0.0632c0.03951,-0.02097 0.07892,-0.04204 0.11873,-0.06261l0.11863,-0.06035l0.11873,-0.05897c0.03941,-0.0193 0.07892,-0.03879 0.11863,-0.05769c0.03941,-0.0188 0.07912,-0.03702 0.11873,-0.05543c0.03961,-0.01831 0.07882,-0.03721 0.11863,-0.05513c0.03931,-0.01782 0.07912,-0.03455 0.11873,-0.05188c0.03951,-0.01733 0.07892,-0.03495 0.11863,-0.05188c0.03941,-0.01673 0.07902,-0.03298 0.11863,-0.04932l0.11873,-0.04843c0.03951,-0.01585 0.07892,-0.0317 0.11863,-0.04716c0.03942,-0.01536 0.07912,-0.03012 0.11873,-0.04509c0.03961,-0.01496 0.07882,-0.03042 0.11863,-0.04499c0.03932,-0.01437 0.07922,-0.02776 0.11873,-0.04174c0.03951,-0.01398 0.07892,-0.02815 0.11863,-0.04174c0.03942,-0.01359 0.07912,-0.02658 0.11873,-0.03967l0.11863,-0.03849c0.03951,-0.0126 0.07902,-0.0255 0.11873,-0.0378c0.03931,-0.01211 0.07912,-0.02353 0.11863,-0.03524c0.03951,-0.01181 0.07902,-0.02392 0.11873,-0.03534c0.03941,-0.01132 0.07902,-0.02186 0.11863,-0.03278l0.11863,-0.03219c0.03961,-0.01044 0.07902,-0.02107 0.11873,-0.03111c0.03941,-0.00994 0.07912,-0.01929 0.11863,-0.02894c0.03951,-0.00965 0.07902,-0.01969 0.11873,-0.02894c0.03941,-0.00915 0.07912,-0.01772 0.11863,-0.02648l0.11873,-0.02579c0.03961,-0.00837 0.07892,-0.01703 0.11863,-0.025c0.03941,-0.00798 0.07912,-0.01516 0.11873,-0.02274c0.03951,-0.00758 0.07892,-0.01555 0.11863,-0.02274l0.11873,-0.02048l0.11863,-0.01959c0.03961,-0.0064 0.07902,-0.01319 0.11873,-0.0192c0.03941,-0.006 0.07912,-0.01103 0.11863,-0.01664c0.03951,-0.00551 0.07902,-0.01132 0.11863,-0.01654l0.11873,-0.01486l0.11863,-0.01359c0.03961,-0.00443 0.07902,-0.00955 0.11873,-0.01358c0.03941,-0.00404 0.07912,-0.00699 0.11863,-0.01063l0.11873,-0.01043c0.03951,-0.00335 0.07902,-0.0066 0.11863,-0.00945c0.03951,-0.00285 0.07912,-0.00512 0.11863,-0.00758c0.03961,-0.00246 0.07902,-0.00532 0.11873,-0.00748c0.03951,-0.00217 0.07912,-0.00364 0.11873,-0.00541l0.11863,-0.00453c0.03961,-0.00138 0.07902,-0.00345 0.11873,-0.00443c0.03941,-0.00098 0.07912,-0.00089 0.11863,-0.00148c0.03961,-0.00059 0.07912,-0.00128 0.11873,-0.00148l0.05232,-0.00069l0.06631,0l0.11873,0l0.11863,0l0.11863,0l0.11873,0l0.11863,0l0.11873,0l0.11863,0l0.11873,0l0.11863,0l0.11873,0l0.11863,0l0.11863,0l0.11873,0l0.11863,0l0.11873,0l0.11863,0l0.11873,0l0.11863,0l0.11863,0l0.11873,0l0.11863,0l0.11873,0l0.11863,0l0.11873,0l0.11873,0l0.11863,0l0.11873,0l0.11863,0l0.11863,0l0.11873,0l0.11863,0l0.11873,0l0.11863,0l0.11873,0l0.11863,0l0.11863,0l0.11873,0l0.11863,0l0.11873,0l0.11863,0l0.11873,0l0.11863,0l0.11873,0l0.11863,0l0.11863,0l0.11873,0l0.11863,0l0.11873,0l0.11863,0l0.11873,0l0.11863,0l0.11873,0l0.11863,0l0.11863,0l0.11873,0l0.11873,0l0.11863,0l0.11873,0l0.11863,0l0.11873,0l0.11863,0l0.11863,0l0.11873,0l0.11863,0l0.11873,0l0.11863,0l0.11873,0l0.11863,0l0.11873,0l0.11863,0l0.11863,0l0.11873,0l0.11863,0l0.11873,0l0.11863,0l0.11873,0l0.11863,0l0.11873,0l0.11863,0l0.11863,0l0.11873,0l0.11863,0l0.11873,0l0.11863,0l0.11873,0l0.11863,0l0.11873,0l0.11863,0l0.11873,0l0.11863,0l0.11873,0l0.11863,0l0.11873,0l0.11863,0l0.11873,0l0.11863,0l0.11863,0l0.11873,0l0.11863,0l0.11873,0l0.11863,0l0.11873,0l0.11863,0l0.11873,0l0.11863,0l0.11863,0l0.11873,0l0.11863,0l0.11873,0l0.11863,0l0.11873,0l0.11863,0l0.11873,0l0.11863,0l0.11863,0l0.11873,0l0.11863,0l0.11873,0l0.11873,0l0.11863,0l0.11873,0l0.11863,0l0.11863,0l0.11873,0l0.11863,0l0.11873,0l0.11863,0l0.11873,0l0.11863,0l0.11873,0l0.11863,0l0.11863,0l0.11873,0l0.11863,0l0.11873,0l0.11863,0l0.11873,0l0.11863,0l0.11863,0l0.11873,0l0.11863,0l0.11873,0l0.11863,0l0.11873,0l0.11863,0l0.11873,0l0.11863,0l0.11863,0l0.11873,0l0.11873,0l0.11863,0l0.1006,0l0,61.52991c0,0.53505 -0.03429,1.06193 -0.1006,1.57896c-0.03192,0.24897 -0.07202,0.49528 -0.11863,0.73932c-0.03547,0.18576 -0.07498,0.37015 -0.11873,0.55286c-0.03685,0.15387 -0.07616,0.30675 -0.11873,0.45836c-0.03734,0.133 -0.07695,0.26501 -0.11863,0.39614c-0.03774,0.11873 -0.07744,0.23647 -0.11863,0.35361c-0.03813,0.10839 -0.07774,0.21619 -0.11873,0.32319c-0.03833,0.09983 -0.07774,0.19896 -0.11863,0.2976c-0.03853,0.09293 -0.07804,0.18537 -0.11873,0.27712c-0.03852,0.08703 -0.07813,0.17336 -0.11863,0.2593c-0.03873,0.0821 -0.07824,0.16372 -0.11873,0.24473c-0.03872,0.07768 -0.07833,0.15495 -0.11863,0.23174c-0.03892,0.07403 -0.07833,0.14757 -0.11873,0.22071c-0.03902,0.07068 -0.07823,0.14107 -0.11863,0.21087c-0.03882,0.06724 -0.07853,0.13408 -0.11863,0.20053c-0.03892,0.06448 -0.07863,0.12817 -0.11873,0.19187c-0.03902,0.06202 -0.07853,0.12375 -0.11863,0.18498c-0.03922,0.05995 -0.07843,0.12001 -0.11873,0.17917c-0.03902,0.05739 -0.07873,0.11429 -0.11863,0.171c-0.03902,0.05543 -0.07873,0.11036 -0.11873,0.16519c-0.03921,0.05385 -0.07863,0.1076 -0.11863,0.16076c-0.03912,0.05188 -0.07873,0.10327 -0.11863,0.15456c-0.03912,0.05021 -0.07892,0.09992 -0.11873,0.14944c-0.03932,0.04893 -0.07853,0.09775 -0.11863,0.14609c-0.03912,0.04715 -0.07892,0.09372 -0.11873,0.14038c-0.03922,0.04588 -0.07873,0.09126 -0.11863,0.13654c-0.03941,0.0447 -0.07873,0.08949 -0.11873,0.13369c-0.03912,0.04312 -0.07902,0.08545 -0.11863,0.12808c-0.03941,0.04223 -0.07873,0.08466 -0.11873,0.1264c-0.03921,0.04086 -0.07892,0.08102 -0.11863,0.12129c-0.03931,0.03987 -0.07873,0.07945 -0.11863,0.11882c-0.03931,0.03888 -0.07882,0.07747 -0.11873,0.11587c-0.03922,0.0377 -0.07892,0.07491 -0.11863,0.11213c-0.03951,0.03692 -0.07882,0.07413 -0.11873,0.11056c-0.03922,0.03573 -0.07902,0.07078 -0.11873,0.10602c-0.03951,0.03515 -0.07863,0.07058 -0.11863,0.10514c-0.03922,0.03396 -0.07912,0.06704 -0.11873,0.10041c-0.03951,0.03337 -0.07873,0.06704 -0.11863,0.09983c-0.03922,0.03229 -0.07912,0.06369 -0.11863,0.09549c-0.03951,0.0317 -0.07882,0.0637 -0.11873,0.0949c-0.03922,0.03072 -0.07902,0.06064 -0.11863,0.09087c-0.03951,0.03012 -0.07882,0.06045 -0.11873,0.09018c-0.03922,0.02924 -0.07902,0.05779 -0.11863,0.08653c-0.03951,0.02865 -0.07882,0.05769 -0.11873,0.08585c-0.03922,0.02776 -0.07902,0.05483 -0.11863,0.0822c-0.03951,0.02737 -0.07882,0.05503 -0.11873,0.08191c-0.03921,0.02638 -0.07902,0.05208 -0.11863,0.07807c-0.03951,0.02599 -0.07873,0.05247 -0.11863,0.07797c-0.03931,0.0252 -0.07922,0.04942 -0.11873,0.07413c-0.03951,0.02471 -0.07882,0.04971 -0.11863,0.07393c-0.03931,0.02392 -0.07912,0.04706 -0.11873,0.07058c-0.03951,0.02343 -0.07892,0.04706 -0.11863,0.07009c-0.03941,0.02274 -0.07902,0.04509 -0.11873,0.06743l-0.11863,0.06626l-0.11873,0.06428l-0.11863,0.06251c-0.03951,0.02057 -0.07892,0.04125 -0.11863,0.06143c-0.03941,0.01998 -0.07902,0.03938 -0.11873,0.05897c-0.03951,0.01959 -0.07882,0.03958 -0.11863,0.05868c-0.03932,0.0189 -0.07922,0.03692 -0.11873,0.05542c-0.03951,0.01851 -0.07892,0.03741 -0.11863,0.05542c-0.03941,0.01792 -0.07922,0.03515 -0.11873,0.05267l-0.11863,0.05178l-0.11873,0.0503l-0.11863,0.04853c-0.03961,0.01605 -0.07902,0.03239 -0.11873,0.04804c-0.03931,0.01546 -0.07912,0.02993 -0.11863,0.04499c-0.03961,0.01506 -0.07892,0.03042 -0.11873,0.04509c-0.03941,0.01457 -0.07902,0.02845 -0.11863,0.04263l-0.11873,0.04184l-0.11863,0.04056c-0.03941,0.01319 -0.07912,0.02569 -0.11873,0.03849c-0.03961,0.0128 -0.07892,0.02619 -0.11863,0.03849c-0.03931,0.01231 -0.07912,0.02363 -0.11863,0.03554l-0.11873,0.03524l-0.11863,0.03376c-0.03951,0.01103 -0.07912,0.02156 -0.11873,0.03209c-0.03961,0.01063 -0.07882,0.02186 -0.11863,0.03209c-0.03941,0.01014 -0.07912,0.0192 -0.11873,0.02894c-0.03951,0.00975 -0.07902,0.01959 -0.11863,0.02894l-0.11873,0.02737l-0.11863,0.02579c-0.03961,0.00847 -0.07892,0.01762 -0.11863,0.02579c-0.03941,0.00807 -0.07922,0.01516 -0.11873,0.02284l-0.11863,0.02264l-0.11873,0.02136c-0.03941,0.00689 -0.07902,0.01319 -0.11863,0.01969c-0.03961,0.0065 -0.07902,0.01348 -0.11873,0.01959c-0.03941,0.0061 -0.07912,0.01132 -0.11863,0.01703l-0.11873,0.01663c-0.03951,0.00532 -0.07902,0.01073 -0.11863,0.01565c-0.03941,0.00492 -0.07912,0.00906 -0.11863,0.01359c-0.03961,0.00453 -0.07902,0.00945 -0.11873,0.01358c-0.03942,0.00413 -0.07902,0.00768 -0.11863,0.01142l-0.11873,0.01063c-0.03961,0.00335 -0.07893,0.00738 -0.11863,0.01034c-0.03941,0.00296 -0.07912,0.00492 -0.11873,0.00748l-0.11873,0.00758l-0.11863,0.0063c-0.03942,0.00187 -0.07912,0.00295 -0.11863,0.00443c-0.03961,0.00148 -0.07912,0.00335 -0.11873,0.00453c-0.03941,0.00108 -0.07902,0.00148 -0.11863,0.00227l-0.11873,0.00158c-0.03695,0.00029 -0.0737,0.00138 -0.11075,0.00138l-0.00788,0l-0.11873,0l-0.11863,0l-0.11873,0l-0.11863,0l-0.11863,0l-0.11873,0l-0.11863,0l-0.11873,0l-0.11863,0l-0.11873,0l-0.11863,0l-0.11873,0l-0.11863,0l-0.11863,0l-0.11873,0l-0.11863,0l-0.11873,0l-0.11863,0l-0.11873,0l-0.11863,0l-0.11863,0l-0.11873,0l-0.11863,0l-0.11873,0l-0.11873,0l-0.11863,0l-0.11873,0l-0.11863,0l-0.11873,0l-0.11863,0l-0.11863,0l-0.11873,0l-0.11863,0l-0.11873,0l-0.11863,0l-0.11873,0l-0.11863,0l-0.11863,0l-0.11873,0l-0.11863,0l-0.11873,0l-0.11863,0l-0.11873,0l-0.11863,0l-0.11873,0l-0.11863,0l-0.11863,0l-0.11873,0l-0.11863,0l-0.11873,0l-0.11863,0l-0.11873,0l-0.11863,0l-0.11873,0l-0.11873,0l-0.11863,0l-0.11863,0l-0.11873,0l-0.11863,0l-0.11873,0l-0.11863,0l-0.11873,0l-0.11863,0l-0.11863,0l-0.11873,0l-0.11863,0l-0.11873,0l-0.11863,0l-0.11873,0l-0.11863,0l-0.11873,0l-0.11863,0l-0.11873,0l-0.11863,0l-0.11873,0l-0.11863,0l-0.11863,0l-0.11873,0l-0.11863,0l-0.11873,0l-0.11863,0l-0.11873,0l-0.11863,0l-0.11873,0l-0.11863,0l-0.11873,0l-0.11863,0l-0.11873,0l-0.11863,0l-0.11863,0l-0.11873,0l-0.11863,0l-0.11873,0l-0.11863,0l-0.11873,0l-0.11863,0l-0.11873,0l-0.11863,0l-0.11863,0l-0.11873,0l-0.11863,0l-0.11873,0l-0.11863,0l-0.11873,0l-0.11863,0l-0.11873,0l-0.11863,0l-0.11873,0l-0.11863,0l-0.11873,0l-0.11863,0l-0.11863,0l-0.11873,0l-0.11863,0l-0.11873,0l-0.11863,0l-0.11873,0l-0.11863,0l-0.11873,0l-0.11863,0l-0.11873,0l-0.11863,0l-0.11873,0l-0.11863,0l-0.11853,0l-0.11873,0l-0.11863,0l-0.11873,0l-0.11863,0l-0.11873,0l-0.11863,0l-0.11873,0l-0.11863,0l-0.11873,0l-0.11863,0l-0.11873,0l-0.11863,0l-0.11863,0l-0.11873,0l-0.11863,0l-0.11873,0l-0.11863,0l-0.11873,0l-0.11863,0l-0.11863,0l-0.11873,0l-0.11863,0l-0.11873,0l-0.11873,0l-0.11863,0l-0.2548,0l0,-28.41296c0.08316,0.07127 0.16829,0.14166 0.2548,0.21156c0.03922,0.0317 0.07883,0.0632 0.11863,0.09451c0.03931,0.03091 0.07882,0.06172 0.11873,0.09234c0.03941,0.03012 0.07873,0.06025 0.11873,0.09018c0.03912,0.02924 0.07892,0.05808 0.11863,0.08702c0.03922,0.02855 0.07892,0.057 0.11873,0.08525c0.03931,0.02786 0.07873,0.05572 0.11863,0.08339l0.11863,0.08122c0.03921,0.02648 0.07892,0.05277 0.11873,0.07895l0.11863,0.07738c0.03931,0.0254 0.07882,0.0507 0.11873,0.0758c0.03912,0.02461 0.07892,0.04903 0.11863,0.07344l0.11873,0.07216c0.03941,0.02363 0.07882,0.04726 0.11863,0.07058c0.03922,0.02304 0.07892,0.04568 0.11863,0.06842l0.11873,0.06743l0.11863,0.06566l0.11873,0.06419c0.03941,0.02107 0.07873,0.04233 0.11863,0.0632c0.03921,0.02057 0.07902,0.04076 0.11873,0.06104l0.11863,0.06025l0.11873,0.05897l0.11863,0.05729c0.03951,0.0189 0.07882,0.038 0.11873,0.0567l0.11863,0.05474l0.11873,0.05424l0.11853,0.05247l0.11863,0.05178l0.11873,0.0506l0.11863,0.04942l0.11873,0.04863l0.11863,0.04726l0.11873,0.04686l0.11863,0.04509c0.03951,0.01496 0.07882,0.03013 0.11873,0.04489l0.11863,0.04322c0.03951,0.01437 0.07882,0.02904 0.11873,0.04322c0.03922,0.01398 0.07912,0.02747 0.11863,0.04125l0.11873,0.04135l0.11863,0.03967c0.03951,0.01319 0.07873,0.02668 0.11863,0.03967c0.03921,0.0129 0.07912,0.0253 0.11873,0.038l0.11863,0.038l0.11873,0.03642l0.11863,0.03633l0.11873,0.03495l0.11863,0.03465l0.11873,0.03367l0.11863,0.03318l0.11873,0.03229l0.11863,0.0316l0.11873,0.03111l0.11863,0.03012l0.11863,0.02983l0.11873,0.02875l0.11863,0.02875l0.11873,0.02737l0.11863,0.02717l0.11873,0.02638l0.11863,0.02589l0.11873,0.0255l0.11863,0.02442l0.11863,0.02451l0.11873,0.02323l0.11863,0.02313l0.11873,0.02245l0.11863,0.02185l0.11873,0.02166l0.11863,0.02057l0.11873,0.02048l0.11863,0.01979l0.11873,0.0193l0.11863,0.0191l0.11873,0.01802l0.11863,0.01811l0.11863,0.01733l0.11873,0.01683l0.11863,0.01674l0.11873,0.01565l0.11863,0.01565l0.11873,0.01516l0.11863,0.01447l0.11873,0.01457l0.11863,0.01358l0.11873,0.01329l0.11863,0.01329l0.11873,0.01221l0.11863,0.01221l0.11863,0.01181l0.11873,0.01113l0.11863,0.01112l0.11873,0.01044l0.11863,0.01004l0.11873,0.01004l0.11863,0.00915l0.11863,0.00896l0.11873,0.00906l0.11873,0.00798l0.11863,0.00797l0.11873,0.00788l0.11863,0.00689l0.11873,0.00689l0.11863,0.00679l0.11873,0.00581l0.11863,0.0059l0.11863,0.00581l0.11873,0.00482l0.11863,0.00492l0.11873,0.00473l0.11863,0.00394l0.11873,0.00394l0.11863,0.00384l0.11873,0.00296l0.11863,0.00295l0.11863,0.00295l0.11873,0.00207l0.11863,0.00197l0.11873,0.00207l0.11863,0.00118l0.11873,0.00108l0.11863,0.00108l0.11863,0.00049l0.11873,0.00019l0.11863,0.0002l0.11873,-0.00029l0.11863,-0.00069l0.11873,-0.00069l0.11873,-0.00098l0.11863,-0.00158l0.11873,-0.00158l0.11863,-0.00158l0.11863,-0.00246l0.11873,-0.00236l0.11863,-0.00246l0.11873,-0.00305l0.11863,-0.00325l0.11873,-0.00335l0.11863,-0.00354l0.11863,-0.00413l0.11873,-0.00404l0.11863,-0.00413l0.11873,-0.00492l0.11863,-0.00492l0.11873,-0.00492l0.05794,-0.00246l0.0607,-0.00295l0.11873,-0.00571l0.11863,-0.0063l0.11863,-0.0065l0.11873,-0.00719l0.11863,-0.00729l0.11873,-0.00797l0.11863,-0.00807l0.11873,-0.00876l0.11863,-0.00886l0.11873,-0.00945l0.11863,-0.00965l0.11863,-0.01014l0.11873,-0.01044l0.11873,-0.01073l0.11863,-0.01122l0.11873,-0.01132l0.11863,-0.01191l0.11873,-0.01191l0.11863,-0.0126l0.11863,-0.0127l0.11873,-0.01309l0.11863,-0.01339l0.11873,-0.01369l0.11863,-0.01398l0.11873,-0.01427l0.11863,-0.01457l0.11873,-0.01486l0.11863,-0.01516l0.11863,-0.01526l0.11873,-0.01585l0.11863,-0.01595l0.11873,-0.01625l0.11863,-0.01654l0.11873,-0.01673l0.11863,-0.01713l0.11873,-0.01723l0.11863,-0.01772l0.11863,-0.01782l0.11873,-0.01802l0.11863,-0.01841l0.11873,-0.01861l0.11863,-0.0189l0.11873,-0.019l0.11863,-0.0193l0.11873,-0.01969l0.11863,-0.01979l0.11873,-0.02008l0.11863,-0.02028l0.11873,-0.02057l0.11863,-0.02077l0.11873,-0.02107l0.11863,-0.02126l0.11873,-0.02146l0.11863,-0.02166l0.11863,-0.02195l0.11873,-0.02225l0.11863,-0.02245l0.11873,-0.02264l0.11863,-0.02284l0.11873,-0.02314l0.11863,-0.02333l0.11873,-0.02353l0.11863,-0.02382l0.11863,-0.02402l0.11873,-0.02432l0.11863,-0.02461l0.11873,-0.02471l0.11863,-0.02491l0.11873,-0.0254l0.11863,-0.0254l0.11873,-0.02579l0.11863,-0.02599l0.11863,-0.02628l0.11873,-0.02648l0.11863,-0.02688l0.11873,-0.02717l0.11873,-0.02747l0.11863,-0.02786l0.11873,-0.02815l0.11863,-0.02855l0.11804,-0.02914l0,-5.20557l-0.11804,0.05868l-0.11863,0.05857l-0.11873,0.05799l-0.11863,0.05749l-0.11873,0.0571l-0.11873,0.05641l-0.11863,0.05572l-0.11873,0.05532l-0.11863,0.05464l-0.11863,0.05414l-0.11873,0.05346l-0.11863,0.05296l-0.11873,0.05218l-0.11863,0.05159l-0.11873,0.05109l-0.11863,0.05041l-0.11873,0.04981l-0.11863,0.04922l-0.11863,0.04843l-0.11873,0.04785l-0.11863,0.04725l-0.11873,0.04666l-0.11863,0.04578l-0.11873,0.04528l-0.11863,0.04449l-0.11873,0.04391l-0.11863,0.04322l-0.11863,0.04263l-0.11873,0.04194l-0.11863,0.04125l-0.11873,0.04046l-0.11863,0.03987l-0.11873,0.03928l-0.11863,0.03849l-0.11873,0.0379l-0.11863,0.03721l-0.11873,0.03642l-0.11863,0.03584l-0.11873,0.03524l-0.11863,0.03446l-0.11873,0.03386l-0.11863,0.03298l-0.11873,0.03249l-0.11863,0.0318l-0.11863,0.03111l-0.11873,0.03042l-0.11863,0.02973l-0.11873,0.02904l-0.11863,0.02855l-0.11873,0.02776l-0.11863,0.02697l-0.11873,0.02648l-0.11863,0.02579l-0.11863,0.0251l-0.11873,0.02432l-0.11863,0.02382l-0.11873,0.02323l-0.11863,0.02234l-0.11873,0.02176l-0.11863,0.02117l-0.11873,0.02057l-0.11863,0.01969l-0.11863,0.0192l-0.11873,0.0187l-0.11863,0.01782l-0.11873,0.01723l-0.11863,0.01674l-0.11873,0.01595l-0.11873,0.01526l-0.11863,0.01477l-0.11863,0.01417l-0.11873,0.01339l-0.11863,0.0128l-0.11873,0.01231l-0.11863,0.01142l-0.11873,0.01103l-0.11863,0.01044l-0.11873,0.00965l-0.07193,0.00571l-0.0467,0.00315l-0.11863,0.00797l-0.11873,0.00788l-0.11863,0.0064l-0.11873,0.006l-0.11863,0.00551l-0.11873,0.00384l-0.11863,0.00384l-0.11873,0.00256l-0.11863,0.00177l-0.11863,0.00148c-0.03981,0.0002 -0.07912,-0.00029 -0.11873,-0.00039l-0.11863,-0.00039l-0.11873,-0.00177l-0.11863,-0.00256l-0.11873,-0.00305c-0.03981,-0.00128 -0.07912,-0.00325 -0.11863,-0.00482c-0.03951,-0.00158 -0.07932,-0.00285 -0.11863,-0.00482l-0.11873,-0.0066l-0.11863,-0.00709l-0.11873,-0.00817l-0.11873,-0.00945c-0.03951,-0.00325 -0.07932,-0.006 -0.11863,-0.00965c-0.03981,-0.00364 -0.07912,-0.00797 -0.11873,-0.01191l-0.11863,-0.01191l-0.11873,-0.01378l-0.11863,-0.01437l-0.11863,-0.01565l-0.11873,-0.01683c-0.03961,-0.00581 -0.07932,-0.01142 -0.11863,-0.01762c-0.03981,-0.0062 -0.07922,-0.013 -0.11873,-0.01959c-0.03951,-0.0066 -0.07942,-0.0127 -0.11863,-0.01969c-0.0399,-0.00709 -0.07912,-0.01486 -0.11873,-0.02225c-0.03951,-0.00738 -0.07942,-0.01437 -0.11863,-0.02215c-0.0399,-0.00788 -0.07902,-0.01654 -0.11863,-0.02481c-0.03961,-0.00827 -0.07942,-0.01625 -0.11873,-0.02491c-0.03981,-0.00876 -0.07922,-0.01811 -0.11863,-0.02727l-0.11873,-0.02786c-0.03981,-0.00965 -0.07922,-0.01988 -0.11863,-0.02993c-0.03971,-0.01014 -0.07942,-0.02018 -0.11873,-0.03071c-0.03981,-0.01063 -0.07922,-0.02176 -0.11863,-0.03278c-0.03971,-0.01112 -0.07942,-0.02225 -0.11873,-0.03386c-0.03981,-0.01171 -0.07922,-0.02382 -0.11863,-0.03593c-0.03971,-0.01221 -0.07932,-0.02442 -0.11863,-0.03702c-0.03981,-0.0128 -0.07932,-0.02599 -0.11873,-0.03918c-0.03961,-0.01329 -0.07942,-0.02658 -0.11863,-0.04026c-0.03991,-0.01388 -0.07922,-0.02835 -0.11873,-0.04272c-0.03961,-0.01447 -0.07942,-0.02875 -0.11863,-0.04361c-0.03991,-0.01516 -0.07922,-0.03091 -0.11873,-0.04657c-0.03961,-0.01565 -0.07942,-0.03111 -0.11863,-0.04715c-0.04,-0.01644 -0.07922,-0.03367 -0.11873,-0.0506c-0.03971,-0.01703 -0.07951,-0.03386 -0.11873,-0.05139c-0.03991,-0.01782 -0.07922,-0.03633 -0.11863,-0.05464c-0.03971,-0.01851 -0.07942,-0.03702 -0.11863,-0.05592c-0.03981,-0.01929 -0.07942,-0.03888 -0.11873,-0.05867c-0.03981,-0.02008 -0.07932,-0.04046 -0.11863,-0.06104c-0.03971,-0.02077 -0.07961,-0.04134 -0.11873,-0.06271c-0.04,-0.02176 -0.07922,-0.0442 -0.11863,-0.06655c-0.03971,-0.02254 -0.07951,-0.04499 -0.11873,-0.06812c-0.0399,-0.02353 -0.07932,-0.04755 -0.11863,-0.07157c-0.0399,-0.02441 -0.07932,-0.04942 -0.11863,-0.07442c-0.03971,-0.0253 -0.07971,-0.0505 -0.11873,-0.07639c-0.0401,-0.02658 -0.07922,-0.05405 -0.11863,-0.08131c-0.0399,-0.02757 -0.07951,-0.05553 -0.11873,-0.08378c-0.03981,-0.02865 -0.07961,-0.0573 -0.11863,-0.08663c-0.0401,-0.03012 -0.07942,-0.06094 -0.11873,-0.09175c-0.0399,-0.0313 -0.07942,-0.06281 -0.11863,-0.0948c-0.03981,-0.03259 -0.07971,-0.06497 -0.11873,-0.09835c-0.0401,-0.03426 -0.07942,-0.06921 -0.11863,-0.10425c-0.0401,-0.03574 -0.07951,-0.07196 -0.11873,-0.10858c-0.0399,-0.03731 -0.07961,-0.07492 -0.11863,-0.11302c-0.03991,-0.03898 -0.07981,-0.07797 -0.11873,-0.11784c-0.0402,-0.04115 -0.07951,-0.08319 -0.11863,-0.12532c-0.0402,-0.04322 -0.07961,-0.08702 -0.11863,-0.13123c-0.0402,-0.04548 -0.07981,-0.09145 -0.11873,-0.13792c-0.0401,-0.04784 -0.07971,-0.09618 -0.11863,-0.14511c-0.0402,-0.0506 -0.07991,-0.10179 -0.11873,-0.15357c-0.0402,-0.05355 -0.07991,-0.1076 -0.11863,-0.16243c-0.0403,-0.057 -0.08001,-0.11459 -0.11873,-0.17297c-0.0404,-0.06094 -0.07991,-0.12256 -0.11863,-0.18488c-0.04059,-0.06537 -0.08011,-0.13162 -0.11873,-0.19846c-0.04069,-0.07039 -0.08011,-0.14186 -0.11863,-0.21402c-0.04089,-0.07649 -0.0803,-0.15407 -0.11873,-0.23243c-0.04089,-0.08348 -0.0805,-0.16814 -0.11863,-0.25369c-0.04099,-0.09204 -0.0809,-0.18498 -0.11873,-0.27949c-0.04178,-0.10445 -0.0808,-0.21097 -0.11863,-0.31847c-0.04188,-0.11922 -0.08159,-0.23991 -0.11863,-0.36277c-0.04286,-0.14245 -0.08257,-0.28726 -0.11873,-0.43454c-0.04493,-0.18321 -0.08415,-0.37035 -0.11863,-0.56094c-0.05114,-0.28254 -0.09094,-0.57295 -0.11873,-0.87124c-0.03193,-0.34446 -0.04828,-0.69935 -0.04828,-1.06448c0,-0.36533 0.01636,-0.72042 0.04828,-1.06517c0.02778,-0.29839 0.06759,-0.5889 0.11873,-0.87163c0.03448,-0.19059 0.0737,-0.37803 0.11863,-0.56133c0.03616,-0.14727 0.07587,-0.29208 0.11873,-0.43463c0.03705,-0.12286 0.07676,-0.24375 0.11863,-0.36307c0.03783,-0.1075 0.07685,-0.21402 0.11863,-0.31857c0.03784,-0.0946 0.07774,-0.18754 0.11873,-0.27968c0.03813,-0.08565 0.07774,-0.17021 0.11863,-0.25369c0.03843,-0.07846 0.07784,-0.15613 0.11873,-0.23262c0.03852,-0.07216 0.07794,-0.14363 0.11863,-0.21412c0.03863,-0.06694 0.07814,-0.1332 0.11873,-0.19856c0.03872,-0.06241 0.07823,-0.12404 0.11863,-0.18498c0.03873,-0.05838 0.07843,-0.11597 0.11873,-0.17307c0.03872,-0.05484 0.07843,-0.10888 0.11863,-0.16253c0.03882,-0.05178 0.07853,-0.10287 0.11873,-0.15357c0.03892,-0.04893 0.07853,-0.09726 0.11863,-0.14511c0.03892,-0.04657 0.07853,-0.09254 0.11873,-0.13802c0.03902,-0.0442 0.07843,-0.08821 0.11863,-0.13142c0.03912,-0.04203 0.07843,-0.08417 0.11863,-0.12532c0.03892,-0.03987 0.07882,-0.07895 0.11873,-0.11794c0.03902,-0.0381 0.07873,-0.0757 0.11863,-0.11301c0.03922,-0.03653 0.07863,-0.07295 0.11873,-0.10869c0.03921,-0.03495 0.07853,-0.06999 0.11863,-0.10425c0.03902,-0.03328 0.07892,-0.06576 0.11873,-0.09835c0.03921,-0.03199 0.07873,-0.06359 0.11863,-0.0949c0.03932,-0.03091 0.07863,-0.06173 0.11873,-0.09185c0.03902,-0.02934 0.07882,-0.05799 0.11863,-0.08663c0.03922,-0.02835 0.07883,-0.05611 0.11873,-0.08378c0.03941,-0.02727 0.07853,-0.05474 0.11863,-0.08131c0.03902,-0.02599 0.07902,-0.05119 0.11873,-0.07649c0.03931,-0.0251 0.07873,-0.05001 0.11863,-0.07442c0.03932,-0.02412 0.07873,-0.04804 0.11863,-0.07157c0.03922,-0.02313 0.07902,-0.04558 0.11873,-0.06812c0.03941,-0.02235 0.07863,-0.04479 0.11863,-0.06655c0.03912,-0.02136 0.07902,-0.04203 0.11873,-0.06281c0.03931,-0.02057 0.07882,-0.04095 0.11863,-0.06104c0.03931,-0.01979 0.07892,-0.03938 0.11873,-0.05867c0.03921,-0.019 0.07892,-0.03751 0.11863,-0.05601c0.03941,-0.01831 0.07873,-0.03682 0.11863,-0.05464c0.03921,-0.01752 0.07902,-0.03436 0.11873,-0.05139c0.03951,-0.01703 0.07873,-0.03416 0.11873,-0.0506c0.03921,-0.01615 0.07902,-0.0316 0.11863,-0.04726c0.03951,-0.01565 0.07882,-0.0314 0.11873,-0.04656c0.03921,-0.01487 0.07902,-0.02914 0.11863,-0.04361c0.03951,-0.01437 0.07882,-0.02884 0.11873,-0.04282c0.03921,-0.01368 0.07902,-0.02697 0.11863,-0.04026c0.03941,-0.01319 0.07892,-0.02638 0.11873,-0.03918c0.03931,-0.0126 0.07892,-0.02481 0.11863,-0.03701c0.03942,-0.01211 0.07883,-0.02412 0.11863,-0.03583l0.11873,-0.03387c0.03941,-0.01102 0.07882,-0.02225 0.11863,-0.03288c0.03931,-0.01053 0.07902,-0.02057 0.11873,-0.03071c0.03941,-0.01004 0.07882,-0.02028 0.11863,-0.02993l0.11873,-0.02786c0.03941,-0.00915 0.07882,-0.01851 0.11863,-0.02727c0.03931,-0.00866 0.07912,-0.01674 0.11873,-0.02501c0.03961,-0.00827 0.07873,-0.01693 0.11863,-0.02481c0.03922,-0.00777 0.07912,-0.01477 0.11863,-0.02215c0.03961,-0.00738 0.07882,-0.01516 0.11873,-0.02225c0.03922,-0.00699 0.07912,-0.01309 0.11863,-0.01969c0.03951,-0.0066 0.07892,-0.01339 0.11873,-0.01959l0.11863,-0.01762l0.11873,-0.01693l0.11863,-0.01565l0.11863,-0.01437l0.11873,-0.01378l0.11863,-0.01191c0.03961,-0.00394 0.07892,-0.00827 0.11873,-0.01191c0.03931,-0.00364 0.07912,-0.0064 0.11863,-0.00965l0.11873,-0.00945l0.11873,-0.00817l0.11863,-0.00709l0.11873,-0.0066c0.03931,-0.00197 0.07912,-0.00325 0.11863,-0.00482c0.03951,-0.00158 0.07882,-0.00354 0.11863,-0.00482l0.11873,-0.00305l0.11863,-0.00256l0.11873,-0.00177l0.11863,-0.0004c0.03961,-0.0001 0.07892,-0.00059 0.11873,-0.00039l0.11863,0.00148l0.11863,0.00177l0.11873,0.00256l0.11863,0.00384l0.11873,0.00384l0.11863,0.00551l0.11873,0.00601l0.11863,0.0064l0.11873,0.00788l0.11863,0.00797l0.0467,0.00315l0.07193,0.00571l0.11873,0.00945l0.11863,0.01024l0.11873,0.01083l0.11863,0.01132l0.11873,0.01211l0.11863,0.0127l0.11873,0.01319l0.11863,0.01388l0.11863,0.01457l0.11873,0.01506l0.11873,0.01575l0.11863,0.01654l0.11873,0.01693l0.11863,0.01762l0.11873,0.01841l0.11863,0.019l0.11863,0.01949l0.11873,0.02038l0.11863,0.02097l0.11873,0.02156l0.11863,0.02215l0.11873,0.02294l0.11863,0.02353l0.11873,0.02422l0.11863,0.0249l0.11863,0.0256l0.11873,0.02628l0.11863,0.02678l0.11873,0.02756l0.11863,0.02835l0.11873,0.02894l0.11863,0.02953l0.11873,0.03032l0.11863,0.03101l0.11863,0.0316l0.11873,0.03239l0.11863,0.03308l0.11873,0.03367l0.11863,0.03446l0.11873,0.03515l0.11863,0.03584l0.11873,0.03642l0.11863,0.03711l0.11873,0.0379l0.11863,0.03859l0.11873,0.03928l0.11863,0.03997l0.11873,0.04056l0.11863,0.04125l0.11873,0.04213l0.11863,0.04273l0.11863,0.04331l0.11873,0.04411l0.11863,0.04479l0.11873,0.04548l0.11863,0.04607l0.11873,0.04676l0.11863,0.04745l0.11873,0.04814l0.11863,0.04883l0.11863,0.04951l0.11873,0.05011l0.11863,0.0508l0.11873,0.05139l0.11863,0.05208l0.11873,0.05257l0.11863,0.05336l0.11873,0.05395l0.11863,0.05454l0.11863,0.05513l0.11873,0.05582l0.11863,0.05631l0.11873,0.0569l0.11873,0.05749l0.11863,0.05808l0.11873,0.05857l0.11863,0.05916l0.11804,0.05927l0,-5.20931l-0.11804,-0.02914l-0.11863,-0.02855l-0.11873,-0.02816l-0.11863,-0.02786l-0.11873,-0.02746l-0.11873,-0.02707l-0.11863,-0.02688l-0.11873,-0.02658l-0.11863,-0.02619l-0.11863,-0.02609l-0.11873,-0.02569l-0.11863,-0.0254l-0.11873,-0.0254l-0.11863,-0.02491l-0.11873,-0.02471l-0.11863,-0.02451l-0.11873,-0.02431l-0.11863,-0.02402l-0.11863,-0.02382l-0.11873,-0.02353l-0.11863,-0.02323l-0.11873,-0.02323l-0.11863,-0.02284l-0.11873,-0.02265l-0.11863,-0.02234l-0.11873,-0.02215l-0.11863,-0.02196l-0.11863,-0.02166l-0.11873,-0.02146l-0.11863,-0.02126l-0.11873,-0.02097l-0.11863,-0.02077l-0.11873,-0.02057l-0.11863,-0.02018l-0.11873,-0.02008l-0.11863,-0.01979l-0.11873,-0.01959l-0.11863,-0.0193l-0.11873,-0.019l-0.11863,-0.0189l-0.11873,-0.01851l-0.11863,-0.01841l-0.11873,-0.01802l-0.11863,-0.01782l-0.11863,-0.01762l-0.11873,-0.01723l-0.11863,-0.01703l-0.11873,-0.01673l-0.11863,-0.01644l-0.11873,-0.01625l-0.11863,-0.01595l-0.11873,-0.01575l-0.11863,-0.01526l-0.11863,-0.01516l-0.11873,-0.01486l-0.11863,-0.01457l-0.11873,-0.01418l-0.11863,-0.01388l-0.11873,-0.01368l-0.11863,-0.01329l-0.11873,-0.01309l-0.11863,-0.0126l-0.11863,-0.0125l-0.11873,-0.01191l-0.11863,-0.01181l-0.11873,-0.01142l-0.11863,-0.01112l-0.11873,-0.01063l-0.11873,-0.01044l-0.11863,-0.01004l-0.11863,-0.00965l-0.11873,-0.00935l-0.11863,-0.00876l-0.11873,-0.00876l-0.11863,-0.00798l-0.11873,-0.00797l-0.11863,-0.00719l-0.11873,-0.00709l-0.11863,-0.0065l-0.11863,-0.0062l-0.11873,-0.00571l-0.0607,-0.00285l-0.05794,-0.00246l-0.11873,-0.00492l-0.11863,-0.00492l-0.11873,-0.00492l-0.11863,-0.00413l-0.11873,-0.00404l-0.11863,-0.00413l-0.11863,-0.00354l-0.11873,-0.00335l-0.11863,-0.00325l-0.11873,-0.00305l-0.11863,-0.00246l-0.11873,-0.00236l-0.11863,-0.00246l-0.11863,-0.00158l-0.11873,-0.00158l-0.11863,-0.00158l-0.11873,-0.00098l-0.11873,-0.00059l-0.11863,-0.00069l-0.11873,-0.00029l-0.11863,0.00019l-0.11873,0.0002l-0.11863,0.00039l-0.11863,0.00108l-0.11873,0.00118l-0.11863,0.00118l-0.11873,0.00207l-0.11863,0.00197l-0.11873,0.00207l-0.11863,0.00295l-0.11863,0.00295l-0.11873,0.00296l-0.11863,0.00384l-0.11873,0.00394l-0.11863,0.00394l-0.11873,0.00482l-0.11863,0.00492l-0.11873,0.00482l-0.11863,0.00581l-0.11863,0.00591l-0.11873,0.00581l-0.11863,0.00679l-0.11873,0.00689l-0.11863,0.00689l-0.11873,0.00787l-0.11863,0.00798l-0.11873,0.00797l-0.11873,0.00906l-0.11863,0.00896l-0.11863,0.00925l-0.11873,0.01004l-0.11863,0.00994l-0.11873,0.01053l-0.11863,0.01113l-0.11873,0.01112l-0.11863,0.01181l-0.11863,0.01231l-0.11873,0.01221l-0.11863,0.01329l-0.11873,0.01329l-0.11863,0.01359l-0.11873,0.01457l-0.11863,0.01447l-0.11873,0.01526l-0.11863,0.01565l-0.11873,0.01565l-0.11863,0.01674l-0.11873,0.01683l-0.11863,0.01733l-0.11863,0.01811l-0.11873,0.01802l-0.11863,0.0191l-0.11873,0.0194l-0.11863,0.01979l-0.11873,0.02048l-0.11863,0.02058l-0.11873,0.02166l-0.11863,0.02195l-0.11873,0.02244l-0.11863,0.02314l-0.11873,0.02323l-0.11863,0.02451l-0.11863,0.02451l-0.11873,0.0254l-0.11863,0.02589l-0.11873,0.02638l-0.11863,0.02727l-0.11873,0.02737l-0.11863,0.02875l-0.11873,0.02875l-0.11863,0.02983l-0.11863,0.03022l-0.11873,0.03111l-0.11863,0.0317l-0.11873,0.03229l-0.11863,0.03318l-0.11873,0.03367l-0.11863,0.03475l-0.11873,0.03495l-0.11863,0.03633l-0.11873,0.03652l-0.11863,0.038c-0.03961,0.0127 -0.07951,0.0251 -0.11873,0.038l-0.11863,0.03968c-0.03951,0.01319 -0.07942,0.02619 -0.11863,0.03967l-0.11873,0.04134l-0.11863,0.04135c-0.0399,0.01418 -0.07922,0.02884 -0.11873,0.04322c-0.03961,0.01437 -0.07942,0.02855 -0.11863,0.04322l-0.11873,0.04499c-0.03961,0.01506 -0.07942,0.02983 -0.11863,0.04509l-0.11873,0.04686l-0.11863,0.04725l-0.11873,0.04873l-0.11863,0.04942l-0.11873,0.0506l-0.11863,0.05178l-0.11853,0.05257l-0.11873,0.05424l-0.11863,0.05474c-0.0399,0.0187 -0.07922,0.0378 -0.11873,0.0567l-0.11863,0.05739l-0.11873,0.05897l-0.11863,0.06025c-0.03971,0.02038 -0.07951,0.04056 -0.11873,0.06113c-0.0399,0.02087 -0.07922,0.04214 -0.11863,0.0633l-0.11873,0.06418l-0.11863,0.06566c-0.0399,0.02234 -0.07932,0.04489 -0.11873,0.06753c-0.03971,0.02274 -0.07942,0.04538 -0.11863,0.06842c-0.03981,0.02333 -0.07922,0.04696 -0.11863,0.07058c-0.03991,0.02392 -0.07942,0.04804 -0.11873,0.07226c-0.03971,0.02441 -0.07951,0.04883 -0.11863,0.07344c-0.0399,0.02511 -0.07942,0.0505 -0.11873,0.0758l-0.11863,0.07748c-0.03981,0.02628 -0.07952,0.05237 -0.11873,0.07895l-0.11863,0.08131c-0.0399,0.02766 -0.07932,0.05552 -0.11863,0.08338c-0.03981,0.02825 -0.07951,0.0567 -0.11873,0.08535c-0.03971,0.02894 -0.07951,0.05779 -0.11863,0.08702c-0.04,0.02993 -0.07932,0.06005 -0.11873,0.09027c-0.0399,0.03061 -0.07942,0.06143 -0.11873,0.09234c-0.03981,0.0313 -0.07942,0.06281 -0.11863,0.0945l0,-0.0001l0,0l0,0l0,0z"/>
    </g>
   </g>
  </g>
 </g>
</svg>